<?xml version="1.0" encoding="utf-8"?>
<!-- Generator: Adobe Illustrator 26.5.0, SVG Export Plug-In . SVG Version: 6.00 Build 0)  -->
<svg version="1.1" id="Warstwa_1" xmlns="http://www.w3.org/2000/svg" xmlns:xlink="http://www.w3.org/1999/xlink" x="0px" y="0px"
	 viewBox="0 0 89 182" style="enable-background:new 0 0 89 182;" xml:space="preserve">
<style type="text/css">
	.st0{fill:#F1F1F1;}
	.st1{fill:#D8D8D8;}
	.st2{fill:#E75A57;}
	.st3{fill:#EE7461;}
	.st4{fill:#CD2578;}
	.st5{fill:#B5106B;}
	.st6{fill:#E95A54;}
	.st7{fill:#4A2254;}
	.st8{fill:#562F5E;}
	.st9{fill:#351A43;}
	.st10{fill:#F2BF7A;}
	.st11{fill:#EAAE6A;}
	.st12{fill:#CF883D;}
	.st13{fill:#4B2055;}
	.st14{fill:#361B44;}
	.st15{fill:#FFFFFF;}
	.st16{fill:#EE751E;}
	.st17{fill:#E8630C;}
	.st18{fill:#F0F0F0;}
</style>
<g>
	<g id="girl_with_box_3_">
		<g>
			<path class="st0" d="M60.6,21.6c0,0-9.6-10-8.4-11.5c1.1-1.5,3.9-3.3,5.3-2.8c1.4,0.5,6.8,11.2,7.7,10.9c0.9-0.2,9.5-7.8,11-7
				c1.6,0.7,3.7,5,3.3,6s-11.7,4.3-11.6,5.6c0.1,2,8.2,8.2,7.4,10.2c-0.8,2-4.4,3.9-5.3,3.1c-0.9-0.8-5.6-10.5-6.9-10.4
				c-1.3,0.2-8.1,6.6-9.3,6.5c-1.2-0.2-4.2-4.1-3.6-4.9C50.7,26.6,60.6,21.6,60.6,21.6z"/>
			<path class="st1" d="M75.6,11.7c1,0,2.9,4.9,2.7,6.3c0.7-0.3,1.2-0.6,1.2-0.8c0.4-1-1.7-5.3-3.3-6s-10.1,6.8-11,7
				S58.9,7.8,57.5,7.3c-0.6-0.2-1.5,0-2.4,0.5c0.7-0.2,1.6-0.3,1.9-0.1c0.4,0.4,6.9,11.4,7.7,11.3C65.5,19,74.5,11.7,75.6,11.7z"/>
			<path class="st1" d="M75.3,33c0.8-2-7.3-8.2-7.4-10.2c0,0,0,0,0-0.1c-0.1,0.2-0.2,0.4-0.3,0.6c-0.1,0.5,1.5,3.7,3.7,5.9
				c2.2,2.2,3.2,3.6,2.9,4.6c-0.1,0.5-0.5,0.9-0.9,1.3C74.2,34.6,74.9,33.8,75.3,33z"/>
			<path class="st2" d="M62.8,23.9c0.7,0.4,0.6,2,0.6,2s0.3,0,1.5,1.8c0,0-1,0.6-1.3,0.8l-1.4-0.3C62.1,27.4,61.7,23.4,62.8,23.9z"
				/>
		</g>
		<g>
			<g>
				<g>
					<g>
						<polygon class="st3" points="39.5,171.1 40.6,160.2 42.7,160.7 41.2,170.8 						"/>
					</g>
				</g>
			</g>
			<g>
				<g>
					<g>
						<g>
							<path class="st4" d="M39.6,172.2c0.2,0.1,0.4,0.1,0.6,0.1c1.4,0.1,9.1,0.8,9.3-0.4c0.2-1.4-2-4.6-7.9-2.5
								C37,171,38.8,171.9,39.6,172.2z"/>
						</g>
					</g>
				</g>
				<g>
					<g>
						<g>
							<path class="st5" d="M41.7,169.4c0.3-0.1,0.5-0.2,0.8-0.2c-1.1,1.1,0.9,2.6,4.2,2.7c2,0.1,2.6-0.4,2.7-0.9
								c0.2,0.4,0.2,0.7,0.2,1c-0.2,1.2-7.8,0.5-9.3,0.4c-0.2,0-0.4-0.1-0.6-0.1C38.8,171.9,37,171,41.7,169.4z"/>
						</g>
					</g>
				</g>
			</g>
		</g>
		<g>
			<g>
				<g>
					<g>
						<polygon class="st6" points="21.6,163.2 28.2,154.5 29.7,156.1 23.1,163.9 						"/>
					</g>
				</g>
			</g>
			<g>
				<g>
					<g>
						<g>
							<path class="st4" d="M20.9,164c0.1,0.2,0.3,0.3,0.4,0.5c1.1,1,6.7,6.2,7.6,5.3c1-0.9,1.1-4.9-4.7-6.8
								C19.6,161.6,20.4,163.3,20.9,164z"/>
						</g>
					</g>
				</g>
				<g>
					<g>
						<g>
							<path class="st5" d="M24.2,163.1c0.3,0.1,0.5,0.2,0.8,0.3c-1.6,0.2-0.9,2.6,1.7,4.7c1.6,1.3,2.4,1.2,2.7,0.9
								c-0.1,0.4-0.3,0.7-0.5,0.9c-0.9,0.8-6.5-4.3-7.6-5.3c-0.2-0.1-0.3-0.3-0.4-0.5C20.4,163.3,19.6,161.6,24.2,163.1z"/>
						</g>
					</g>
				</g>
			</g>
		</g>
		<g>
			<g>
				<g>
					<g>
						<path class="st7" d="M49.2,90.6l3,35.5c0,0.4-0.1,0.7-0.4,1L28,159.6l-3-2.5l18.8-30.2l-6.9-35.8L49.2,90.6z"/>
					</g>
				</g>
			</g>
			<g>
				<g>
					<g>
						<polygon class="st8" points="30.1,91.3 42.9,131.5 39.5,163.6 43.3,164 48.8,130.3 45.4,90.4 						"/>
					</g>
				</g>
			</g>
			<g>
				<g>
					<g>
						<path class="st7" d="M40.6,163.7l-1.1-0.1l3.3-32.1L30,91.3l15.3-0.9l0.6,7.6c-1.1-1.3-4.7-4.7-8.3-0.8
							c-4,4.3,7.3,34.4,7.3,34.4L40.6,163.7z"/>
					</g>
				</g>
			</g>
			<g>
				<g>
					<path class="st9" d="M48.8,130.3l-3.1-34v-0.1l0.9-2c0.1-0.1,0.2-0.2,0.3-0.1c0.1,0.1,0.2,0.2,0.1,0.3l-0.9,1.9l3.2,34.1
						l-0.8,1.1L48.8,130.3z"/>
				</g>
			</g>
		</g>
		<g>
			<g>
				<path class="st10" d="M32.6,54.4c0,0,6.2-0.7,11.3-1.4c9.1-1.3,15.6-21.1,17.6-25.1c0,0,2.3,0,3.2,0.6c0,0,1.7,34-14.8,43
					c0,0,1.3,17.8,0.6,21.4c0,0-10.8,5.6-20.4,4.7c0,0-4.9-12.9-8-18.1c0,0-1.4,3.9-6.7,7.2c0,0,2.6,6.2,7.7,7.6
					c0,0,0.6,1.4-0.8,2.5c0,0-17.4,0.8-17.8-8.6C4.1,79,11.5,60.4,32.6,54.4z"/>
			</g>
			<g>
				<path class="st11" d="M30.1,97.7c0,0-4.8-12.7-7.9-17.9c0.7-1.9,1.5-4.9,2.1-9.4c0,0,3.1,20.3,16.3,19.7
					c6.5-0.3,9.1-3.5,10.1-6.8c0.2,4.1,0.2,8.2-0.1,9.7C50.5,93,39.7,98.6,30.1,97.7z"/>
			</g>
			<g>
				<path class="st3" d="M38.1,53.7c1.4,6.2,0.7,9.7-2.6,8.4c-3.6-1.4-5.7-4-6.7-6.5c1.2-0.5,2.5-0.9,3.8-1.2L38.1,53.7z"/>
			</g>
			<g>
				<path class="st12" d="M22.1,79.7c1.9-5.8,2.1-12.6,2.1-12.7c0-0.1,0.1-0.3,0.3-0.3c0.1,0,0.3,0.1,0.3,0.3
					c0,0.1-0.2,7.3-2.3,13.3C22.3,80.1,22.2,79.9,22.1,79.7z"/>
			</g>
			<g>
				<g>
					<g>
						<g>
							<polygon class="st3" points="28.8,50.5 30.8,58.4 35.2,59.2 36.4,56.7 33.3,51.6 							"/>
						</g>
					</g>
				</g>
				<g>
					<path class="st13" d="M26.5,49.2c0,0-2.7-1.4-2.8-3.7s12.2-5.7,13.4-3.6c1.2,2.1-4.7,1.2-4.7,1.2l-2.9,1.7c0,0-2.1,3.1-1.8,4.6
						S26.5,49.2,26.5,49.2z"/>
				</g>
				<g>
					<g>
						<g>
							<path class="st6" d="M34.9,54.2c-1,0.1-4.3,0.3-5.4-2.8l3.9,0.2L34.9,54.2z"/>
						</g>
					</g>
				</g>
				<g>
					<g>
						<g>
							<path class="st3" d="M33.7,43.1c0,0,4.6,7.1,0.9,8.7c-3.7,1.7-5.5-0.4-5.5-0.4s-1.4,1.3-2.5,0.2c-1-1.1-1.5-3.2,1.2-3.3
								C27.8,48.3,28.8,42.8,33.7,43.1z"/>
						</g>
					</g>
				</g>
				<g>
					<g>
						<g>
							<path class="st14" d="M27.9,48.3c0.1,0,0.1-0.1,0.1-0.2c0.7-2.5,2-4,3.9-4.6c1.4-0.4,2.7-0.2,2.7-0.2c0.1,0,0.3-0.1,0.3-0.2
								c0-0.1-0.1-0.3-0.2-0.3c-0.1,0-1.4-0.3-2.9,0.2c-2.6,0.8-3.7,3.1-4.2,5C27.6,48.1,27.6,48.3,27.9,48.3
								C27.8,48.4,27.9,48.4,27.9,48.3z"/>
						</g>
					</g>
				</g>
				<g>
					<g>
						<g>
							<path class="st15" d="M34.1,49.4c0,0-1.4,0.5-3.8,0.1c0,0,1.8,2.4,3.1,1.7C34,50.8,34.1,49.4,34.1,49.4z"/>
						</g>
					</g>
				</g>
				<g>
					<g>
						<path class="st16" d="M23.1,48c0,0,16-6.2,15.5-8.4c-0.3-1.5-3.3-0.5-3.3-0.5S32,32.7,27.9,34C23.2,35.4,17,37.8,23.1,48z"/>
					</g>
					<g>
						<path class="st17" d="M35.4,39c0.3,1.5-4.9,5-9.6,5.2c-4.7,0.2-5.2-2.9-5.2-4.4c-0.3,2,0.3,4.6,2.5,8.1c0,0,2.3-0.9,5.2-2.1
							c4.6-2,10.7-4.9,10.4-6.3C38.4,38.1,35.8,38.9,35.4,39z"/>
					</g>
					<g>
						<g>
							<path class="st17" d="M26.2,45.7c-0.2,0-0.3,0-0.4-0.2c-1.4-2.4-2.2-4.6-2.2-6.4c0-2.6,4.4-4,4.6-4.1c0.2-0.1,0.4,0,0.5,0.3
								c0.1,0.2,0,0.4-0.3,0.5c-1.1,0.4-4.1,1.7-4.1,3.3c0,1.7,0.7,3.8,2.1,6.1c0.1,0.2,0,0.4-0.1,0.5
								C26.3,45.7,26.2,45.7,26.2,45.7z"/>
						</g>
					</g>
					<g>
						<path class="st18" d="M28.5,39.7c0,0,3.2-1.5,3.5-1.9l0.7,1.4c0,0-3.2,1.9-3.5,1.9L28.5,39.7z"/>
					</g>
				</g>
			</g>
		</g>
		<path class="st11" d="M50,71.5L50,71.5c0-0.1-0.2-18-6.9-18.4c0.3,0,0.5-0.1,0.8-0.1c9.1-1.3,15.6-21.1,17.6-25.1
			c0,0,2.3,0,3.2,0.6C64.7,28.5,66.4,62.3,50,71.5z"/>
		<g>
			<path class="st3" d="M23,94.9c0,0,2.8-1.7,3.2-1.2s-1.1,1.1-0.8,1.4c0.4,0.3,3.2-0.6,3.6,0.2c0.3,0.6-2.8,0.7-2.7,0.9
				s2.7,0.8,2.8,1.3c0.1,0.4-0.8,0.5-2.5-0.2c0,0-0.7-0.3-0.7-0.2s2.1,1.4,1.9,1.7c-0.2,0.3-0.8,0-2.4-1.1c0,0-0.3-0.2-0.2,0
				s1.6,1.6,0.8,1.6s-4-3.2-4-3.2L23,94.9z"/>
			<g>
				<path class="st10" d="M18.5,91.6c1.2,1.2,2.7,2.4,4.6,2.9c0,0,0.6,1.4-0.8,2.5c0,0-3.4,0.2-7.2-0.5
					C16.1,94.8,17.3,93.2,18.5,91.6z"/>
			</g>
		</g>
	</g>
</g>
</svg>
