<?xml version="1.0" encoding="utf-8"?>
<!-- Generator: Adobe Illustrator 26.5.0, SVG Export Plug-In . SVG Version: 6.00 Build 0)  -->
<svg version="1.1" id="Warstwa_1" xmlns="http://www.w3.org/2000/svg" xmlns:xlink="http://www.w3.org/1999/xlink" x="0px" y="0px"
	 viewBox="0 0 162 198.7" style="enable-background:new 0 0 162 198.7;" xml:space="preserve">
<style type="text/css">
	.st0{fill:#EE7460;}
	.st1{fill:#338AC4;}
	.st2{fill:#1E7AAA;}
	.st3{fill:#E85854;}
	.st4{fill:#4A2254;}
	.st5{fill:#562F5E;}
	.st6{fill:#351A43;}
	.st7{fill:#F9AF1B;}
	.st8{fill:#EE9603;}
	.st9{fill:#D47411;}
	.st10{fill:#B4116C;}
	.st11{fill:#EE7461;}
	.st12{fill:#4C2255;}
	.st13{fill:#E95A54;}
	.st14{fill:#381B44;}
	.st15{fill:#EE751F;}
	.st16{fill:#EA610A;}
	.st17{fill:#EFEFEF;}
	.st18{opacity:0.3;}
	.st19{fill:#FFFFFF;}
	.st20{fill:#343434;}
	.st21{fill:#CD2578;}
	.st22{fill:#B5106B;}
	.st23{fill:#D72A85;}
	.st24{fill:#70377E;}
	.st25{fill:#EE745C;}
</style>
<g id="girl_with_box_4_">
	<g>
		<g>
			<g>
				<g>
					<polygon class="st0" points="114.6,187.4 113.5,176.9 111.5,177.4 113,187.2 					"/>
				</g>
			</g>
		</g>
		<g>
			<g>
				<g>
					<g>
						<path class="st1" d="M114.8,188.8c-0.2,0.1-0.4,0.1-0.6,0.1c-1.4,0.1-8.8,0.6-9-0.6c-0.2-1.3,2.1-4.3,7.7-2.2
							C117.2,187.8,115.5,188.6,114.8,188.8z"/>
					</g>
				</g>
			</g>
			<g>
				<g>
					<g>
						<path class="st2" d="M112.8,186.1c-0.3-0.1-0.5-0.2-0.7-0.3c1.1,1.1-0.9,2.5-4.1,2.5c-1.9,0-2.5-0.5-2.6-1
							c-0.2,0.4-0.2,0.7-0.2,1c0.2,1.2,7.5,0.7,9,0.6c0.2,0,0.4-0.1,0.6-0.1C115.5,188.6,117.2,187.8,112.8,186.1z"/>
					</g>
				</g>
			</g>
		</g>
	</g>
	<g>
		<g>
			<g>
				<g>
					<polygon class="st3" points="132.8,172.9 125.8,164.9 124.3,166.5 131.2,173.6 					"/>
				</g>
			</g>
		</g>
		<g>
			<g>
				<g>
					<g>
						<path class="st1" d="M133.4,173.6c-0.1,0.2-0.2,0.3-0.4,0.5c-1,1-6,6.4-7,5.7c-1-0.8-1.4-4.6,4.1-6.9
							C134.5,171.1,133.8,172.8,133.4,173.6z"/>
					</g>
				</g>
			</g>
			<g>
				<g>
					<g>
						<path class="st2" d="M130.1,172.9c-0.3,0.1-0.5,0.2-0.7,0.3c1.5,0.1,1,2.4-1.3,4.6c-1.4,1.3-2.2,1.4-2.6,1.1
							c0.1,0.4,0.3,0.7,0.5,0.8c0.9,0.7,6-4.6,7-5.7c0.1-0.2,0.3-0.3,0.4-0.5C133.8,172.8,134.5,171.1,130.1,172.9z"/>
					</g>
				</g>
			</g>
		</g>
	</g>
	<g>
		<g>
			<g>
				<g>
					<path class="st4" d="M105.2,109.7l-2.9,34.3c0,0.4,0.1,0.7,0.4,1l24.3,25.5l2.4-2.5l-19-23.1l6.6-34.6L105.2,109.7z"/>
				</g>
			</g>
		</g>
		<g>
			<g>
				<g>
					<polygon class="st5" points="123.8,110.3 111.3,149.2 114.5,180.2 110.9,180.6 105.6,148 108.9,109.5 					"/>
				</g>
			</g>
		</g>
		<g>
			<g>
				<g>
					<path class="st4" d="M113.5,180.3l1-0.1l-3.2-31l12.4-38.9l-14.8-0.9l-0.6,7.4c1-1.2,4.5-4.6,8-0.8c3.8,4.1-7.1,33.2-7.1,33.2
						L113.5,180.3z"/>
				</g>
			</g>
		</g>
		<g>
			<g>
				<path class="st6" d="M105.6,148.1l3-32.9v-0.1l-0.9-1.9c-0.1-0.1-0.2-0.2-0.3-0.1s-0.2,0.2-0.1,0.3l0.9,1.9l-3,32.3L105.6,148.1
					z"/>
			</g>
		</g>
	</g>
	<g>
		<g>
			<g>
				<path class="st7" d="M146.8,96.9c-1.5-8.9-12.2-25.1-33.4-26.6c0,0-5.7,0.5-7.8,1c-8.5,2.1-17.6,17.1-27.4,6.4
					c-0.9,0.5-1.9,1.1-2.8,1.6c1.7,4.4,8.4,18.1,25.2,11.6c0,0,2.2,16.1,3.5,19.4c0,0,11.3,3.2,20.3,0.5c0,0,2.1-13.2,4-18.7
					c0,0,2.1,3.4,7.8,5.5c0,0-3.9,6.9-8.6,9.2c0,0,0.1,1.7,1.6,3C129.2,109.8,148.3,105.8,146.8,96.9z"/>
			</g>
		</g>
		<path class="st8" d="M78.2,77.6c-0.9,0.5-1.9,1.1-2.8,1.6c1.7,4.4,8.3,18,25,11.7c-0.6-2.8-2.9-16.4,3.7-19.2
			c0.1-0.1,0.3-0.1,0.4-0.2C96.3,74.6,87.6,87.9,78.2,77.6z"/>
	</g>
	<g>
		<g>
			<g>
				<path class="st8" d="M124.4,110.8c0,0,2-13,4-18.6c-1.1-1.7-2.4-4.4-3.8-8.5c0,0,1.1,19.8-11.6,21.8c-6.2,1-9.3-1.6-10.9-4.4
					c0.7,4,1.4,7.8,2,9.2C104.1,110.4,115.4,113.5,124.4,110.8z"/>
			</g>
		</g>
	</g>
	<g>
		<g>
			<g>
				<path class="st0" d="M106.9,70.9c-0.3,0.7-0.8,2.3-0.6,4.3c0.3,3.4,4.3,5,6.9,2.9c2.4-2,4.1-4.9,4-7.4c-1.2-0.2-2.5-0.3-3.8-0.4
					C113.4,70.2,110.5,70.5,106.9,70.9z"/>
			</g>
		</g>
	</g>
	<g>
		<g>
			<g>
				<path class="st9" d="M128.4,92.1c-3-5.1-4.5-11.5-4.5-11.6s-0.2-0.2-0.3-0.2s-0.2,0.2-0.2,0.3c0,0.1,1.6,6.9,4.8,12.1
					C128.3,92.6,128.3,92.3,128.4,92.1z"/>
			</g>
		</g>
	</g>
	<g>
		<g>
			<g>
				<path class="st3" d="M125.8,107.8c-0.2,0.1-0.3,0.2-0.3,0.4l0,0c0,0,0,0,1.3-0.7C126.8,107.5,126.2,107.6,125.8,107.8z"/>
			</g>
		</g>
	</g>
	<g>
		<g>
			<path class="st10" d="M100.6,91.4L100.6,91.4L100.6,91.4z"/>
		</g>
	</g>
	<g>
		<g>
			<g>
				<g>
					<g>
						<g>
							<g>
								<polygon class="st11" points="113.8,64.6 115.3,72.2 111.8,74.8 109.8,73.1 110.2,67.4 								"/>
							</g>
						</g>
					</g>
					<g>
						<path class="st12" d="M115.1,62.5c0,0,1.7-2.3,0.8-4.4s-12.9,0.1-13.1,2.4c-0.2,2.3,4.6-0.9,4.6-0.9l3.2,0.3
							c0,0,3.1,1.8,3.5,3.2C114.5,64.6,115.1,62.5,115.1,62.5z"/>
					</g>
					<g>
						<g>
							<g>
								<path class="st13" d="M110,70.3c0.9-0.3,3.9-1.6,3.5-4.7l-3.3,1.8L110,70.3z"/>
							</g>
						</g>
					</g>
					<g>
						<g>
							<g>
								<path class="st11" d="M106.3,60.3c0,0-1,8,2.9,7.9s4.6-2.7,4.6-2.7s1.8,0.5,2.2-0.8c0.4-1.4,0-3.4-2.4-2.4
									C113.6,62.3,110.4,58,106.3,60.3z"/>
							</g>
						</g>
					</g>
					<g>
						<g>
							<g>
								<path class="st14" d="M113.5,62.4c-0.1,0-0.1,0-0.2-0.1c-1.6-1.8-3.4-2.6-5.2-2.4c-1.4,0.2-2.4,1-2.4,1
									c-0.1,0.1-0.3,0.1-0.3,0c-0.1-0.1-0.1-0.3,0-0.3c0,0,1-0.8,2.6-1.1c2.6-0.4,4.5,1.2,5.7,2.5c0.1,0.1,0.1,0.3,0,0.3
									S113.6,62.4,113.5,62.4z"/>
							</g>
						</g>
					</g>
					<g>
						<g>
							<path class="st15" d="M117.5,60c0,0-16.4,1.3-16.9-0.8c-0.4-1.4,2.6-1.8,2.6-1.8s0.2-6.9,4.3-7.5
								C112.3,49.2,118.6,48.8,117.5,60z"/>
						</g>
						<g>
							<path class="st16" d="M103.2,57.5c0.4,1.4,6.3,2.3,10.4,0.5c4.2-1.8,3.3-4.7,2.7-6c1.1,1.6,1.6,4.1,1.2,8
								c0,0-2.4,0.2-5.3,0.3c-4.8,0.2-11.3,0.2-11.6-1.1C100.3,57.9,102.9,57.5,103.2,57.5z"/>
						</g>
						<g>
							<g>
								<path class="st16" d="M113.9,59.4c0.2,0,0.3-0.2,0.3-0.3c0.2-2.7-0.1-4.8-0.8-6.5c-1-2.2-5.5-1.6-5.7-1.6s-0.3,0.2-0.3,0.4
									c0,0.2,0.2,0.3,0.4,0.3c1.1-0.2,4.2-0.3,4.9,1.2s0.9,3.5,0.7,6.1c0,0.2,0.1,0.4,0.3,0.4C113.9,59.4,113.9,59.4,113.9,59.4z"
									/>
							</g>
						</g>
						<g>
							<path class="st17" d="M109.5,55.2c0,0-3.4,0.1-3.9-0.2v1.5c0,0,3.5,0.3,3.9,0.2V55.2z"/>
						</g>
					</g>
				</g>
				<g>
					<g class="st18">
						<path class="st19" d="M108,61.5c0,0,0,2.5,1.7,2.6c1.7,0.1,1.9-0.5,2-0.8s-0.4-1.8-0.4-1.8L108,61.5z"/>
					</g>
					<g class="st18">
						<path class="st19" d="M107.2,61.6c0,0,0.4,2.3-1.1,2.5c-1.5,0.3-1.5,0.3-1.7-0.1c-0.2-0.4-0.3-1.5-0.3-1.5L107.2,61.6z"/>
					</g>
					<g>
						<path class="st20" d="M104.4,64.5c0.2,0.2,0.4,0.2,0.7,0.2c0.1,0,0.2,0,0.3,0s0.2,0,0.4,0c0.5-0.1,1-0.2,1.3-0.6
							c0.4-0.4,0.5-1.1,0.4-2c0.1,0,0.2,0,0.2,0c0.2,1,0.5,1.7,1,2.1c0.5,0.4,1.1,0.4,1.6,0.3c0.1,0,0.3,0,0.4-0.1
							c0.1,0,0.2,0,0.3-0.1c0.3,0,0.5-0.2,0.7-0.4c0.4-0.6,0.1-1.6,0-2.2c1.4,0,2.2,0,2.3,0c0,0,0,0,0.1,0s0.2-0.1,0.2-0.2
							s-0.1-0.3-0.2-0.3c-0.1,0-5.1-0.4-9.9,0.9c-0.1,0-0.2,0.1-0.2,0.3c0,0,0,0,0,0.1C103.9,63,103.9,64.1,104.4,64.5z M108.3,61.9
							c1.1-0.1,2.1-0.2,2.9-0.2c0.2,0.6,0.3,1.5,0.1,1.9c-0.1,0.2-0.4,0.2-0.7,0.2c-0.6,0.1-1.2,0.2-1.6-0.1
							C108.8,63.4,108.4,62.8,108.3,61.9z M104.4,62.6c0.9-0.2,1.7-0.4,2.5-0.5c0.1,0.8,0,1.3-0.3,1.6c-0.3,0.4-0.8,0.4-1.3,0.5
							c-0.2,0-0.5,0.1-0.6,0C104.5,63.9,104.4,63.2,104.4,62.6z"/>
					</g>
				</g>
			</g>
		</g>
	</g>
	<path class="st11" d="M77.6,75.3c-0.7,0.2-0.8,1.7-0.8,1.7l-2.4,0.5c0.2,0.3,1.1,1.1,1.5,1.6l1.8-1.1C78,77.3,78.6,75,77.6,75.3z"
		/>
	<g>
		<path class="st21" d="M140.3,138.6c0.7-0.1,1.4-0.2,2-0.4c6.2-3.2,14.9-11.9,11.4-20.8c-4.3-11-72-44.5-72.9-47.8
			C80,66.3,91.6,45.5,92.3,40.7c0.7-4.8-10.7-18.2-12.5-18.9S26.6,91.6,26.6,91.6s14.3,6.6,19.9,6.3c5.6-0.4,22.3-16.9,27.5-18
			c4.5-0.9,45.6,44.9,60,56.9C135.9,137.8,138.1,138.8,140.3,138.6z"/>
		<path class="st22" d="M140.3,138.6c0.7-0.1,1.4-0.2,2-0.4c6.2-3.2,14.9-11.9,11.4-20.8c-0.8-2.1-4.1-5.1-8.8-8.6
			c0.3,0.3,0.7,0.6,1,0.9c12,9.7,4.5,20.2-4.2,21.9c-8.7,1.7-20-11-30.2-22.8C101.2,96.9,78.5,76.1,75,75.4
			C71.5,74.7,57.2,87.8,49,92.1c-7.2,3.8-17.2-2.4-19.7-4.1c-1.6,2.2-2.5,3.5-2.5,3.5s14.3,6.6,19.9,6.3c5.6-0.4,22.3-16.9,27.5-18
			c4.5-0.9,45.6,44.9,60,56.9C135.9,137.8,138.1,138.8,140.3,138.6z"/>
		<path class="st22" d="M80.9,69.5c-0.8-3.3,10.8-24.1,11.5-28.9c0.5-3.7-5.9-12.2-9.8-16.5c2.7,3.6,8.8,12.3,7.7,15.8
			c-1.5,4.5-12.9,25.5-11.6,27.8c0.3,0.5,1.5,1.9,4.4,3.6C81.8,70.4,81,69.8,80.9,69.5z"/>
		<path class="st23" d="M54.8,86.8c0.5-0.6,16-13.5,21.4-12.7s32.2,29,35.7,32.7s18.9,22.8,27.3,23.6c8.4,0.8,11.6-9.5,11.6-9.5
			s-6.2,8.6-12.9,7.2c-6.6-1.4-23.8-21.2-27.4-25.3c-3.6-4.1-27.5-29.6-35.4-30.5C69.5,71.8,54.8,86.8,54.8,86.8z"/>
		<path class="st23" d="M35,82.4c0,0,42.9-59,44.9-59.1c2.1-0.1,9,12.2,9.1,14.3c0.1,2.1-3.9,10.3-3.9,10.3s3.2-9.9,2.3-11.3
			c-0.9-1.4-5.7-10-7-10C79.1,26.6,36.2,82.6,35,82.4z"/>
		<path class="st6" d="M54.9,5.1c-0.2,0.1-1.7,1.7-3.3,3.8l4,3.1l-3.5,4.6L48,13.5c-1.1,1.4-2.3,2.9-3.5,4.5l4.2,3.2l-3.5,4.6
			L41,22.6c-1.1,1.5-2.3,3-3.5,4.5l4.2,3.2l-3.5,4.6L34,31.7c0,0-2.3,3-3.5,4.5l4.2,3.2L31.2,44L27,40.8c0,0-2.3,3-3.4,4.5l4.2,3.2
			l-3.5,4.6L20.2,50c0,0-2.3,3.1-3.4,4.6l4.1,3.1l-3.5,4.6l-4-3c0,0-2.4,3.2-3.4,4.6l3.9,3l-3.6,4.8l-3.7-2.8c0,0-2.6,3.8-2.6,4
			C4.5,74.5,28,91.3,28,91.3L79.5,24C79.5,23.9,56.2,4.7,54.9,5.1z"/>
		<path class="st5" d="M55.6,4.3c-0.2,0.1-1.3,1.4-3.1,3.6l4,3.1L53,15.6L49,12.5c-1.1,1.4-2.3,2.9-3.5,4.5l4.2,3.2l-3.5,4.6
			L42,21.6c-1.1,1.5-2.3,3-3.5,4.5l4.2,3.2l-3.5,4.6L35,30.7c-1.1,1.5-2.3,3-3.4,4.5l4.2,3.2L32.2,43L28,39.8
			c-1.2,1.5-2.3,3-3.4,4.6l4.2,3.2l-3.5,4.6L21.2,49c-1.2,1.6-2.3,3.1-3.4,4.6l4.1,3.1l-3.5,4.6l-4-3.1c-1.2,1.6-2.3,3.2-3.4,4.6
			l3.9,3l-3.5,4.6l-3.8-2.9C6,69.9,5,71.4,5.1,71.6C5.5,73.2,29,90,29,90l51.6-67.3C80.3,22.9,56.9,3.9,55.6,4.3z"/>
		<path class="st24" d="M56.6,12.1c-0.3,0.3-0.6,0.7-1,1l-0.9,1c-0.6,0.7-1.2,1.3-1.7,2c-0.7-0.5-1.3-0.9-2-1.3
			c-0.7-0.5-1.4-0.9-2.1-1.3c0.7,0.5,1.3,1,2,1.5s2.2,1.5,2.2,1.5s1.3-1.5,1.9-2.2l0.9-1.1C56.1,12.8,56.3,12.4,56.6,12.1z"/>
		<path class="st24" d="M49.5,21.3c-0.3,0.3-0.6,0.7-1,1l-0.9,1c-0.6,0.7-1.2,1.3-1.7,2c-0.7-0.5-1.3-0.9-2-1.3
			c-0.7-0.5-1.4-0.9-2.1-1.3c0.7,0.5,1.3,1,2,1.5s2.2,1.5,2.2,1.5s1.3-1.5,1.9-2.2l0.9-1.1C49,22.1,49.3,21.7,49.5,21.3z"/>
		<path class="st24" d="M42.6,30.4c-0.3,0.3-0.6,0.7-1,1l-0.9,1c-0.6,0.7-1.2,1.3-1.7,2c-0.7-0.5-1.3-0.9-2-1.3
			c-0.7-0.5-1.4-0.9-2.1-1.3c0.7,0.5,1.3,1,2,1.5s2.2,1.5,2.2,1.5s1.3-1.5,1.9-2.2l0.9-1.1C42,31.1,42.3,30.7,42.6,30.4z"/>
		<path class="st24" d="M35.5,39.6c-0.3,0.3-0.6,0.7-1,1l-0.9,1c-0.6,0.7-1.2,1.3-1.7,2c-0.7-0.5-1.3-0.9-2-1.3
			c-0.7-0.5-1.4-0.9-2.1-1.3c0.7,0.5,1.3,1,2,1.5S32,44,32,44s1.3-1.5,1.9-2.2l0.9-1.1C34.9,40.4,35.2,40,35.5,39.6z"/>
		<path class="st24" d="M28.8,48.8c-0.3,0.3-0.6,0.7-1,1l-0.9,1c-0.6,0.7-1.2,1.3-1.7,2c-0.7-0.5-1.3-0.9-2-1.3
			c-0.7-0.5-1.4-0.9-2.1-1.3c0.7,0.5,1.3,1,2,1.5s2.2,1.5,2.2,1.5s1.3-1.5,1.9-2.2l0.9-1.1C28.2,49.6,28.5,49.2,28.8,48.8z"/>
		<path class="st24" d="M21.8,58.1c-0.3,0.3-0.6,0.7-1,1l-0.9,1c-0.6,0.7-1.2,1.3-1.7,2c-0.7-0.5-1.3-0.9-2-1.3
			c-0.7-0.5-1.4-0.9-2.1-1.3c0.7,0.5,1.3,1,2,1.5s2.2,1.5,2.2,1.5s1.3-1.5,1.9-2.2l0.9-1.1C21.1,58.8,21.4,58.5,21.8,58.1z"/>
		<path class="st24" d="M14.8,67.1c-0.3,0.3-0.6,0.7-1,1l-0.9,1c-0.6,0.7-1.2,1.3-1.7,2c-0.7-0.5-1.3-0.9-2-1.3
			c-0.7-0.5-1.4-0.9-2.1-1.3c0.7,0.5,1.3,1,2,1.5s2.2,1.5,2.2,1.5s1.3-1.5,1.9-2.2l0.9-1.1C14.2,67.9,14.5,67.5,14.8,67.1z"/>
	</g>
	<g>
		<g>
			<path class="st25" d="M128.2,107.6c0,0-3.3-1.6-3.7-1s1.4,1.1,1,1.4s-3.6-0.2-4,0.6c-0.3,0.7,3.1,0.4,3.1,0.6
				c-0.1,0.2-2.8,1.2-2.9,1.7c-0.1,0.5,1,0.5,2.7-0.5c0,0,0.7-0.4,0.7-0.3s-2.2,1.8-1.9,2.1s0.9-0.1,2.5-1.5c0,0,0.3-0.3,0.2-0.1
				c-0.1,0.2-1.6,2-0.7,1.9c0.9-0.1,4-4,4-4L128.2,107.6z"/>
		</g>
		<g>
			<g>
				<path class="st7" d="M134.8,99.8c-1.5,2.2-4.2,5.5-7.1,6.9c0,0,0.1,1.7,1.6,3c0,0,6.7-1.4,11.8-4.4
					C139,103.5,136.9,101.7,134.8,99.8z"/>
			</g>
		</g>
	</g>
</g>
</svg>
