<?xml version="1.0" encoding="utf-8"?>
<!-- Generator: Adobe Illustrator 26.5.0, SVG Export Plug-In . SVG Version: 6.00 Build 0)  -->
<svg version="1.1" id="Warstwa_1" xmlns="http://www.w3.org/2000/svg" xmlns:xlink="http://www.w3.org/1999/xlink" x="0px" y="0px"
	 viewBox="0 0 170 291" style="enable-background:new 0 0 170 291;" xml:space="preserve">
<style type="text/css">
	.st0{fill:#D8D8D8;}
	.st1{fill:#B5106B;}
	.st2{fill:#CD2578;}
	.st3{fill:#811551;}
	.st4{opacity:5.000000e-02;fill:#FFFFFF;enable-background:new    ;}
	.st5{fill:#EE9603;}
	.st6{fill:#F9AF1B;}
	.st7{fill:#8F9B9C;}
	.st8{fill:#9FA9AA;}
	.st9{fill:#CE264D;}
	.st10{fill:#AF193E;}
	.st11{opacity:0.15;fill:#FFFFFF;enable-background:new    ;}
	.st12{fill:#343434;}
	.st13{fill:#1C1C1C;}
	.st14{fill:#3B3A3A;}
	.st15{fill:#8C1536;}
	.st16{fill:#BDCCD4;}
	.st17{fill:#A8BDC6;}
	.st18{fill:#E75A57;}
	.st19{fill:#D47411;}
	.st20{fill:#8A1D1B;}
	.st21{fill:#AC3D32;}
	.st22{fill:#EE7565;}
	.st23{fill:#4A2254;}
	.st24{fill:#562F5E;}
	.st25{fill:#E99106;}
	.st26{fill:#2C2D2D;}
	.st27{fill:#FFFFFF;}
	.st28{fill:#EE751E;}
	.st29{fill:#E8630C;}
	.st30{fill:#F0F0F0;}
	.st31{fill:#351A43;}
</style>
<g>
	<g>
		<ellipse class="st0" cx="95.6" cy="276.2" rx="65.9" ry="10.2"/>
		<g>
			<path class="st1" d="M147,151.5c-0.8-0.8-15.6-1.9-17-1.3c-1.3,0.5-1.1,0.8-1.1,0.8v13.8l17.5,2.7l1.6-1.1
				C148,166.3,147.8,152.3,147,151.5z M138.7,161c-1.6,0.7-3.6-0.3-4.5-2.2c-0.9-1.9-0.2-4.1,1.4-4.8c1.6-0.7,3.6,0.3,4.5,2.2
				C140.9,158.1,140.3,160.3,138.7,161z"/>
			<path class="st2" d="M145.9,152.3c-0.8-1.3-15.9-1.9-16.9-1.3c-1,0.5-1.1,13.5-1.1,13.5l18.3,2.4
				C146.2,166.9,146.7,153.6,145.9,152.3z M138.7,161c-1.6,0.7-3.6-0.3-4.5-2.2c-0.9-1.9-0.2-4.1,1.4-4.8c1.6-0.7,3.6,0.3,4.5,2.2
				C140.9,158.1,140.3,160.3,138.7,161z"/>
			<g>
				<path class="st1" d="M135.6,158.7c-0.9-1.9-0.2-4.1,1.4-4.8c0.1-0.1,0.3-0.1,0.4-0.1c-0.6-0.1-1.2-0.1-1.8,0.1
					c-1.6,0.7-2.2,2.9-1.4,4.8c0.8,1.8,2.5,2.8,4,2.4C137.2,160.9,136.2,160,135.6,158.7z"/>
				<path class="st1" d="M138.5,161.1c-0.1,0-0.1,0-0.2,0.1C138.4,161.1,138.4,161.1,138.5,161.1z"/>
			</g>
		</g>
		<path class="st2" d="M39.1,163.1c0,0,5.7,103.6,10.6,111.3c4.9,7.8,88.3,5.5,91.7,1.1c3.4-4.4,15.3-108.3,12.8-111
			s-17.3-7-59.2-7.5C53.2,156.5,39.3,161.2,39.1,163.1z"/>
		<path class="st1" d="M40.2,180.8c3.7,0.9,28,6.4,59.1,5.7c33.9-0.8,15.1,78.4,6.9,85.9c-7.1,6.4-39.7,5.5-48.2,5.2
			c22.2,3.9,80.6,1.6,83.4-2c3.1-4.1,13.6-94.2,13.1-109l-115.3-0.7C39.4,168.8,39.7,174.1,40.2,180.8z"/>
		<path class="st2" d="M97.2,155.7c0,0-28.4-0.5-44,1.3c-15.6,1.9-16.7,4.2-17.5,5.8c-0.8,1.6-0.8,11.4,0,13.8s26.5,6.4,61.2,6.9
			s58.8-4.8,59.6-5.6c0.8-0.8,2.1-13.3,0.3-15.4C154.9,160.5,147,156.5,97.2,155.7z"/>
		<g>
			<path class="st1" d="M94.8,170c-32,0-46.6-2.8-52.8-4.7c24.2,8.7,64.4,5.6,70.4,6.1c4.8,0.4,4.4,8.1,3.9,11.8
				c24-1.1,39.6-4.6,40.2-5.3c0.8-0.8,2.1-13.3,0.3-15.4C158.9,166.3,143,170,94.8,170z"/>
		</g>
		<g>
			<path class="st3" d="M102.3,184.5c-8.7,0-16.8-0.3-23.8-0.8c-22.1-1.4-38.3-4.1-38.4-4.1c-0.2,0-0.4-0.2-0.3-0.5
				c0-0.2,0.2-0.4,0.5-0.3c0.2,0,16.3,2.8,38.4,4.1c20.3,1.3,49.9,1.6,75.5-4.1c0.2,0,0.4,0.1,0.5,0.3c0,0.2-0.1,0.4-0.3,0.5
				C137.3,183.4,118.8,184.5,102.3,184.5z"/>
		</g>
		<path class="st3" d="M154.1,162.9c0,2.6-25.9,5.6-57.2,5.6s-57.4-3.5-57.2-6.1c0.3-3.7,24.1-5.3,55.4-5.3
			C126.4,157.1,154.1,160.2,154.1,162.9z"/>
		<g>
			<path class="st1" d="M62.2,176.7c0,0-0.3-14-1.1-14.8c-0.8-0.8-15.6-1.9-17-1.3c-1.3,0.5-1.1,0.8-1.1,0.8v13.8l17.5,2.7
				L62.2,176.7z"/>
			<path class="st2" d="M42,174.8c0,0,0.1-13,1.1-13.5s16.1,0,16.9,1.3s0.3,14.6,0.3,14.6L42,174.8z"/>
			<path class="st1" d="M54.2,166.5c0.9,1.9,0.2,4.1-1.4,4.8c-1.6,0.7-3.6-0.3-4.5-2.2c-0.9-1.9-0.2-4.1,1.4-4.8
				C51.4,163.6,53.4,164.6,54.2,166.5z"/>
			<path class="st3" d="M54.2,166.5c-0.6-1.3-1.6-2.1-2.7-2.4c-0.1,0-0.3,0.1-0.4,0.1c-1.6,0.7-2.2,2.9-1.4,4.8
				c0.6,1.3,1.6,2.1,2.7,2.4c0.1,0,0.3-0.1,0.4-0.1C54.5,170.6,55.1,168.4,54.2,166.5z"/>
		</g>
		<path class="st4" d="M74.1,199.9c1.4,2.6,2.7,5.2,4.3,7.7c2.8,4.6,6.3,8.8,9.4,13.2c0.5-12.7,0.7-23,0.4-24
			c-0.5-1.6-9.1-2.4-16.8-2.4C72.3,196.2,73.2,198.1,74.1,199.9z"/>
		<path class="st4" d="M85.1,228.3c-2.7-3.4-5.1-7-7.4-10.8c-2.3-4-4.8-7.9-7-11.9c-1.9-3.4-3.4-7.1-5-10.6c-1,0.1-1.9,0.3-2.5,0.4
			c-4.7,1.3,0.4,74.1,1,75.1c0.4,1.1,19.1,1.9,20.5,0.5c0.7-0.7,1.9-20.7,2.6-39.7C86.6,230.2,85.9,229.3,85.1,228.3z"/>
		<path class="st4" d="M67.2,179.8c0,0-0.5-7.4,0.5-7.7c1.1-0.3,27.3,0.5,27.6,1.3c0.3,0.8,0.3,7.4-0.5,8.2
			C94,182.5,67.5,180.9,67.2,179.8z"/>
		<path class="st1" d="M63.8,183.6c0,0,22.2,44.4,37.4,53.5c17.5,10.6,29.9,4.2,29.9,4.2l-4.5,6.4c0,0-19.3,4.5-36.8-13.5
			s-32.1-50.9-32.1-50.9L63.8,183.6z"/>
		<path class="st5" d="M154.7,206.5c-0.2-4.4-0.9-9.1-1.9-14l-1.5,15.2c0.4,11.3-2.1,20.7-7.3,27.2c-7.2,9-19.1,12.5-32.7,9.5
			c-30.5-6.6-57.2-75.2-57.5-75.9c-0.3-0.9-1.3-1.3-2.2-1c-0.9,0.3-1.3,1.3-1,2.2c0.1,0.2,6.9,17.9,17.5,36.2
			c6.3,10.8,12.6,19.7,18.9,26.4c8,8.6,15.9,13.8,23.5,15.4c3.3,0.7,6.7,1.1,9.9,1.1c3.6,0,7.1-0.5,10.3-1.4
			c6.5-1.8,11.9-5.4,16-10.5C152.6,229.6,155.3,219.1,154.7,206.5z"/>
		<path class="st6" d="M56.2,176.6c2.6,5.7,5.3,11.4,8.3,16.9c2.9,5.6,6,11,9.3,16.4c3.3,5.3,6.8,10.5,10.7,15.5c1,1.2,2,2.4,3,3.6
			s2.1,2.3,3.2,3.5c2.2,2.2,4.5,4.4,7,6.2c1.2,0.9,2.5,1.8,3.9,2.5l1,0.5c0.3,0.2,0.7,0.3,1,0.5c0.7,0.3,1.4,0.6,2.2,0.9
			c2.9,1.1,5.9,2,9,2.5s6.2,0.7,9.3,0.5c0.4,0,0.8-0.1,1.2-0.1l1.2-0.2c0.8-0.1,1.5-0.3,2.3-0.4c0.4-0.1,0.8-0.2,1.1-0.3l1.1-0.3
			l1.1-0.4c0.4-0.1,0.7-0.2,1.1-0.4l1.1-0.4l0.3-0.1l0.3-0.1l0.5-0.3c0.3-0.2,0.7-0.3,1-0.5l1-0.6l0.5-0.3l0.5-0.3l1-0.7
			c0.3-0.2,0.6-0.5,0.9-0.7l0.5-0.4l0.2-0.2l0.2-0.2c2.4-2,4.4-4.5,6-7.2s2.8-5.6,3.6-8.6c0.8-3,1.3-6.1,1.5-9.3
			c-0.1,3.1-0.5,6.3-1.3,9.3c-0.8,3.1-1.9,6-3.5,8.8c-1.6,2.7-3.6,5.2-6,7.3l-0.2,0.2l-0.2,0.2l-0.5,0.4c-0.3,0.2-0.6,0.5-0.9,0.7
			l-1,0.7l-0.5,0.3l-0.5,0.3l-1,0.6c-0.3,0.2-0.7,0.4-1.1,0.5l-0.5,0.3l-0.3,0.1l-0.3,0.1l-1.1,0.5c-2.9,1.2-6.1,1.9-9.2,2.1
			c-3.2,0.2-6.4,0.1-9.5-0.4s-6.2-1.4-9.1-2.5c-0.7-0.3-1.5-0.6-2.2-0.9c-0.4-0.2-0.7-0.3-1.1-0.5l-1.1-0.6c-1.4-0.8-2.7-1.6-4-2.6
			c-2.5-1.9-4.9-4.1-7.1-6.3c-1.1-1.1-2.1-2.3-3.2-3.5c-1-1.2-2-2.4-3-3.7c-1.9-2.5-3.8-5-5.6-7.6c-1.8-2.6-3.5-5.3-5.1-8
			C66.7,199.4,61,188.1,56.2,176.6z"/>
		<path class="st7" d="M91.7,165c-9.3,2.1-6.9-1.9-22-1.1c-11.4,0.6-13.5,1.8-13.9,2.3c10.5,1.2,25.1,2.1,41.1,2.1
			c18.3,0,34.7-1,45.3-2.4c-3.8-1.5-11.9-3-22.1-3.7C105.5,161.3,101,162.9,91.7,165z"/>
		<path class="st8" d="M124.1,163.7c-14.3-1.3-25.4,1.1-25.4,1.1c19.1-1.5,30.5,0.8,35.5,2.2c1.8-0.2,3.6-0.3,5.2-0.5
			C137.3,165.7,133.1,164.6,124.1,163.7z"/>
		<path class="st8" d="M58.9,166.6c1.3,0.1,2.6,0.3,3.9,0.4c2.9-1.8,13.5-2.2,13.5-2.2C65.9,164.3,59.8,166.3,58.9,166.6z"/>
		<path class="st8" d="M117.7,165.3c-6.6,0-15.1,1.3-22.8,1.6c-7.7,0.3-11.7-1.1-16.2-1.1c-3.5,0-8,0.6-9.8,1.7
			c1.4,0.1,2.8,0.2,4.3,0.3c1.1-0.5,2.6-1,4.2-1.2c3.4-0.3,7.7,0.5,11.1,1.1c3.4,0.5,11.7-0.3,14.8-0.8c3.2-0.5,14.6-1.1,15.7-0.7
			c0.5,0.2,0.7,0.9,0.9,1.7c1.3-0.1,2.6-0.1,3.8-0.2C122.9,166.5,121.2,165.3,117.7,165.3z"/>
		<path class="st7" d="M125.1,163.2c0,0,4.8-10.3,9.7-8.6C139.7,156.4,125.1,163.2,125.1,163.2z"/>
		<path class="st7" d="M48.2,162.6c0,0-12.2,5.4-9.2,9.6C42,176.5,48.2,162.6,48.2,162.6z"/>
		<path class="st7" d="M136,171.9c0,0,11.7,15.6,4.8,20.1S139.7,181.7,136,171.9z"/>
		<path class="st8" d="M83.3,167.4c0,0-7.7,1.1-8.5,7.2c-0.7,5-4,6.4-5.3,2.4C68.1,173,69.7,167.1,83.3,167.4z"/>
	</g>
	<g>
		<g>
			<g>
				<path class="st9" d="M40.6,39.1c0,0-1.4-12.8,1.2-17c3.8-6.2,13.2-6,17.5-5.3s12.4,15.1,12.4,15.1L40.6,39.1z"/>
				<path class="st10" d="M51.2,28.7c-2.9-1.7-3-9.3-3-11.4c-2.6,0.8-4.9,2.3-6.4,4.7c-2.6,4.2-1.2,17-1.2,17l20.8-4.8l4.2-2.9
					C65.6,31.4,54.5,30.7,51.2,28.7z"/>
				<path class="st11" d="M54.5,18.7c0,0,2.2,0,2.6,0.5c0.5,0.5,7.7,7.4,6,8.4s-6,0.5-6.5-0.2C56.2,26.6,54.5,18.7,54.5,18.7z"/>
			</g>
			<g>
				<path class="st12" d="M109.5,29C105.9,17.2,97.7,9.6,88.6,9.8S69.2,30,69.2,30c-14.6-3.1-25,4.6-25,4.6s-21.1-15.8-32.4-6.7
					s2.4,61.5,15.8,68s26.9-10.6,26.9-10.6C67.9,91.8,87.1,80,87.1,80s17,5.3,23.3,1.2C116.7,77,113.1,40.7,109.5,29z M31.2,84
					C25,81.6,16.3,48.7,20.9,40.5s19.4,2.9,19.4,2.9s-4.1,21,7.2,34.9C47.6,78.2,37.5,86.4,31.2,84z M103.7,70.1
					c-4.7,4.8-17,0.5-17,0.5c5-22.6-11.4-33.8-11.4-33.8s11-17.4,19.3-13.1C103.5,28.3,108.4,65.3,103.7,70.1z"/>
				<path class="st13" d="M75.3,36.8c0,0,11-17.4,19.3-13.1c8.9,4.6,13.8,41.6,9.1,46.4c-4.7,4.8-17,0.5-17,0.5
					C91.7,48,75.3,36.8,75.3,36.8l-7.6,50.1c10.2-1.3,19.5-7,19.5-7s17,5.3,23.3,1.2c1.2-0.8,2-2.9,2.5-5.9
					c-1.9,6.5-10.1,5.4-14.8,4.7c-4.8-0.7-6.2-5-5-6.2s11.3,0,13.4-2.9c2.2-2.9,3.6-13,0.5-28.6s-6.5-23.5-15.6-21.1
					C82.4,23.5,75.3,36.8,75.3,36.8z"/>
				<path class="st13" d="M44.5,47.9l4.2-10.3c0,0-5.4,2.7-8.3,5.8c0,0-4.1,21,7.2,34.9c0,0-10.1,8.2-16.3,5.8
					C25.1,81.7,16.4,48.8,21,40.6s19.4,2.9,19.4,2.9S30.3,35.3,22.2,37c-8.2,1.7-7.7,11.3-4.6,25.7S25,85.3,30.3,86.8
					c5.3,1.4,11.5-5.3,13.2-3.8c1.7,1.4,4.1,5.8-1.4,9.1c-5.2,3.2-12.7,5.3-19.3-0.7c1.6,2.1,3.3,3.7,4.9,4.5
					c13.4,6.5,26.9-10.6,26.9-10.6c2.3,1.1,4.7,1.7,7.2,1.9L44.5,47.9z"/>
				<g>
					<path class="st13" d="M14.3,26.2c1.2-0.2,4-0.3,9.3,0.8c7.9,1.7,18.2,9.8,18.2,9.8s0.7-1.1,2.3-2.5
						C42.7,33.4,25.5,21,14.3,26.2z"/>
					<path class="st13" d="M91.2,9.9c-0.8-0.1-1.7-0.2-2.6-0.1C79.5,10,69.2,30,69.2,30c-0.3-0.1-0.6-0.1-0.9-0.2
						c2.9,0.7,4.8,1.6,4.8,1.6S81.9,10.7,91.2,9.9z"/>
				</g>
				<path class="st14" d="M36.5,35c0,0-17.5-10.6-24.2-6s0,37.2,0,37.2S8,33.3,13.7,30.4C19.5,27.5,36.5,35,36.5,35z"/>
				<path class="st14" d="M77.6,30.4c0,0,9.6-13.2,19.9-10.6s12.2,32.6,12.2,32.6S110.2,20,97,17.8C83.8,15.8,77.6,30.4,77.6,30.4z"
					/>
				<path class="st14" d="M24.3,82.8c0,0,3.1,4.8,5,5.3S40.6,84,42,84.5c1.4,0.5-0.5,2.6-4.8,4.3c-4.3,1.7-6.7,1.9-9.1,0.5
					C25.7,87.8,24.3,82.8,24.3,82.8z"/>
				<path class="st14" d="M40,41.3c0,0,3.2-9.1,16.4-10.9c14.3-1.9,18.8,3.7,18.8,3.7s-8.5-4.2-18.6-2.4
					C46.7,33.6,42.4,37.9,40,41.3z"/>
			</g>
			<path class="st9" d="M51.7,35.5c0,0-15.4,3.6-15.8,22.3c-0.5,18.7,19.2,46.3,25.4,49.9c6.2,3.6,24,0.5,26.2-5.8
				c1.5-4.2,4.1-46.1-3.6-56.9C76.1,34.3,69.9,32.6,51.7,35.5z"/>
			<path class="st10" d="M69.4,101c0,0-14.9-25.7-15.6-46.1c-0.6-17.8,13-19.9,16.5-20.1c-4.6-1-10.4-0.6-18.7,0.7
				c0,0-15.4,3.6-15.8,22.3c-0.5,18.7,19.2,46.3,25.4,49.9c2.1,1.2,5.5,1.7,9.2,1.5L69.4,101z"/>
			<path class="st15" d="M87.4,101.9c0.1-0.2,0.2-0.6,0.3-1.1c0.2-3.9-4.2-8.8-16.8-4.9c-15.6,4.8-9.6,11.8-9.6,11.8
				C67.5,111.3,85.3,108.2,87.4,101.9z"/>
			<path class="st15" d="M88.6,64.5c0-0.6-0.1-1.1-0.1-1.7C87,61,84.6,59,81.3,57.5c-4.3-2-11.6-3.7-21.6-0.2
				C50,60.6,45,65.9,42.5,69.8c-1.5,2.3-2.3,4.3-2.7,5.7c0.2,0.5,0.4,1,0.6,1.5C41,74.4,44.2,63.7,60,58.3
				c7.7-2.7,14.9-2.6,20.9,0.1C82.8,59.3,86.5,61.6,88.6,64.5z"/>
			<path class="st11" d="M81.9,89c0,0-1.7-45.8-8.4-46.8c-6.7-1-9.8,2.2-10.3,4.6c-0.5,2.4,11,43.9,13.2,44.1
				C78.5,91.1,81.9,89,81.9,89z"/>
			<path class="st16" d="M72.2,99.8c0,0-6.2,3-6.2,4.9s2.4,7.8,4.7,8.3c3.9,0.9,10.3-1.6,10.5-2.3c0.2-0.7,1.5-9.4,0.3-10.1
				C80.3,99.9,77.2,98.3,72.2,99.8z"/>
			<path class="st17" d="M73.1,108.7c-1.4-3-0.8-7.4-0.5-9.1c-0.2,0-0.3,0.1-0.5,0.1c0,0-6.2,3-6.2,4.9s2.4,7.8,4.7,8.3
				c3.6,0.8,9.4-1.3,10.4-2.2c0-0.1,0.1-0.2,0.1-0.3C81.7,107,73.1,108.7,73.1,108.7z"/>
			<g>
				<path class="st13" d="M88.4,169.5l-11.1-58c-0.2-0.8-0.9-1.1-1.8-0.9c-0.8,0.2-1.4,0.6-1.3,1.5l11,57.3
					C86.2,169.5,87.3,169.5,88.4,169.5z"/>
			</g>
		</g>
		<g>
			<path class="st18" d="M105.9,18.8c-0.3,0.3-0.6,0.6-0.9,0.9c0.1,0.1,9.6,12.3,14.6,26.2l14.1-7.2
				C133.7,38.8,119.7,26.9,105.9,18.8z"/>
		</g>
		<g>
			<g>
				<g>
					<g>
						<path class="st5" d="M131.6,54.3c1.4-1.9,2.6-4.1,3.4-6.6c0.3-1.1,0.5-2.6,0.5-4.2c-0.1-2,0-3-1.6-5c-4.5-5.7-9.1-8.7-9.1-8.7
							s-2.6,5.5-10.2,13.1C114.6,43,122.8,53.4,131.6,54.3z"/>
					</g>
				</g>
			</g>
			<g>
				<g>
					<g>
						<g>
							<g>
								<path class="st19" d="M124.6,29.6c0.1,0,0.2-0.1,0.3,0c0.1,0.1,0.2,0.2,0.1,0.4s-2.2,4.7-10.3,13.2c-0.1,0.1-0.3,0.1-0.4,0
									s-0.1-0.3,0-0.4c8-8.4,10.1-13,10.2-13C124.6,29.7,124.6,29.6,124.6,29.6z"/>
							</g>
						</g>
					</g>
				</g>
			</g>
			<g>
				<g>
					<g>
						<g>
							<g>
								<path class="st19" d="M126.9,31.4c0.1,0,0.2-0.1,0.3,0c0.1,0.1,0.2,0.2,0.1,0.4s-2.5,5.2-10.5,13.7c-0.1,0.1-0.3,0.1-0.4,0
									s-0.1-0.3,0-0.4c8-8.4,10.4-13.5,10.4-13.6C126.8,31.5,126.8,31.4,126.9,31.4z"/>
							</g>
						</g>
					</g>
				</g>
			</g>
		</g>
		<g>
			<g>
				<g>
					<polygon class="st18" points="140.8,151.4 138.6,142.4 136.6,142.8 139.5,151.3 					"/>
				</g>
			</g>
			<g>
				<g>
					<path class="st20" d="M141.6,152.1c0.5,0,0.8-0.5,0.6-1c-0.3-0.5-0.8-1-2-1.3c-2.4-0.7-6.4-1.4-7-0.6c-0.3,0.4-0.5,0.9-0.6,1.5
						c-0.2,0.8,0.4,1.6,1.3,1.6L141.6,152.1z"/>
				</g>
			</g>
			<g>
				<g>
					<path class="st21" d="M133.6,150.8c-0.8-0.2-0.8-0.8-0.7-1.3c0.1-0.1,0.1-0.3,0.2-0.4c0.6-0.8,4.5-0.1,6.9,0.6
						C142.9,151.2,135,151.1,133.6,150.8z"/>
				</g>
			</g>
		</g>
		<g>
			<g>
				<g>
					<polygon class="st22" points="112.4,156.5 112.3,147.1 110.3,147.2 111.2,156.2 					"/>
				</g>
			</g>
			<g>
				<g>
					<path class="st20" d="M113,157.5c0.4,0,0.6-0.4,0.5-0.7c-0.2-0.5-0.7-1.2-2.1-1.6c-2.4-0.7-6.4-1.4-7-0.6
						c-0.3,0.5-0.6,1.2-0.7,1.8c-0.1,0.7,0.4,1.3,1,1.3L113,157.5z"/>
				</g>
			</g>
			<g>
				<g>
					<path class="st21" d="M104.9,156.3c-0.8-0.2-0.8-0.8-0.7-1.3c0.1-0.1,0.1-0.3,0.2-0.4c0.6-0.8,4.5-0.1,6.9,0.6
						C114.2,156.6,106.2,156.6,104.9,156.3z"/>
				</g>
			</g>
		</g>
		<g>
			<g>
				<g>
					<path class="st23" d="M122.2,80.9c0,0,1.8,32.6,2.5,35.1c0.6,2.5,12.5,29.8,12.5,29.8s1.1,0.2,2.6-0.5c0,0-7.1-26.6-7.2-30.2
						s5.2-32.5,5.2-32.5L122.2,80.9z"/>
				</g>
			</g>
			<g>
				<g>
					<path class="st24" d="M140.2,80.7c0,0,1,0.8-3.7,8.7c-2.2,3.7-21.8,24.8-21.9,26c0,1.2-1.6,36.7-1.6,36.7s-1.2,0.6-2.7-0.2
						c0,0-3.4-36.5-3.4-37.6c0-2,18.9-33.5,18.9-33.5L140.2,80.7z"/>
				</g>
			</g>
			<g>
				<g>
					<path class="st23" d="M129.8,85.5c-1-2.6-4.5-1.7-6.7-0.2c1.6-2.7,2.7-4.5,2.7-4.5l14.5-0.1c0,0,1,0.8-3.7,8.7
						c-2,3.3-18.2,20.9-21.3,25.1C121.4,105.2,131,88.6,129.8,85.5z"/>
				</g>
			</g>
		</g>
		<g>
			<g>
				<g>
					<g>
						<g>
							<path class="st6" d="M140.8,85.2c0,0,10.1-22.7,8.4-31.3c-1.5-7.6-7.2-13.3-12.7-14.9c-6.2-1.8-13.6,1.1-16.5,17.7l-0.1,1.2
								c0,0-1.1,6.7-0.5,21.4C119.4,79.3,126.5,85.6,140.8,85.2z"/>
						</g>
					</g>
				</g>
			</g>
		</g>
		<g>
			<g>
				<g>
					<g>
						<path class="st5" d="M138.6,48.2l9.8,2.9c0.3,0.9,0.6,1.9,0.8,2.9c1.7,8.6-8.4,31.3-8.4,31.3c-14.3,0.4-21.4-5.9-21.4-5.9
							c-0.2-5.6-0.2-10-0.1-13.4c2.6-2.2,8.6-7.4,8.6-7.4l-1.4-1.6C131.5,51.1,138.6,48.2,138.6,48.2z"/>
					</g>
				</g>
			</g>
			<g>
				<g>
					<g>
						<g>
							<path class="st25" d="M124.9,80.5c1.9,0.7,4.2,1.3,6.8,1.9c4.5,0.9,8.6,1.3,9.7,1.4c0.1,0,0.3-0.1,0.3-0.2
								c0-0.1-0.1-0.3-0.2-0.3c-1.7-0.1-16.3-1.4-21.9-6.3c-0.1-0.1-0.3-0.1-0.4,0s-0.1,0.3,0,0.4C120.6,78.6,122.5,79.6,124.9,80.5
								z"/>
						</g>
					</g>
				</g>
			</g>
		</g>
		<g>
			<g>
				<g>
					<g>
						<g>
							<path class="st12" d="M132.3,29c0,0-2,1.5-3-0.3s1.4-3.2,1.4-3.2s-1.8-1.2-0.2-3.2c1.6-2,3-0.3,3-0.3s-0.3-3,3.6-2.9
								c4,0,3.4,2.4,3.4,2.4s2-1.5,3.6,1c1.6,2.6-0.6,3.2-0.6,3.2s1.3,0.5,1,1.2c-0.3,0.8-1.1,0.7-1.1,0.7s2.4,2,0.3,3.8
								c-2.1,1.8-4,0.8-4,0.8L132.3,29z"/>
						</g>
					</g>
				</g>
				<g>
					<g>
						<g>
							<path class="st26" d="M139.6,32.2l-7.3-3.3c0,0-2,1.5-3-0.3s1.4-3.2,1.4-3.2s-0.8-0.6-0.9-1.5c0.8,1.2,2.4-0.2,2.4-0.2
								s0.3,1.5,2.2,1.7c1.9,0.1,1.9-1.3,1.9-1.3c1.1,1.6,2.1,0.5,2.1,0.5s-0.8,1.4,0.1,2s1.3-0.4,1.3-0.4s0.2,3.2,1.9,2.4
								c1.7-0.8,0.8-2.3,0.8-2.3c1.2,1.1,1.7,0.4,1.8-0.1c0.1,0.1,0.1,0.3,0,0.5c-0.3,0.8-1.1,0.7-1.1,0.7s2.4,2,0.3,3.8
								C141.5,33.2,139.6,32.2,139.6,32.2z"/>
						</g>
					</g>
				</g>
				<g>
					<g>
						<g>
							<g>
								<polygon class="st22" points="139,33 139.4,41 136.1,43.3 134.2,41.4 135.2,35.5 								"/>
							</g>
						</g>
					</g>
				</g>
				<g>
					<g>
						<g>
							<g>
								<path class="st18" d="M134.7,38.5c0.9-0.2,4.1-1.3,4-4.5l-3.5,1.6L134.7,38.5z"/>
							</g>
						</g>
					</g>
				</g>
				<g>
					<g>
						<g>
							<g>
								<path class="st22" d="M131.9,28c0,0-1.7,8.1,2.2,8.3c4,0.2,4.9-2.3,4.9-2.3s1.8,0.7,2.3-0.7c0.6-1.4,0.3-3.5-2.3-2.6
									c0,0-2.8-1.1-1.8-3c0,0-2,0.7-3.3-0.9C134,26.7,133.2,28.2,131.9,28z"/>
							</g>
						</g>
					</g>
				</g>
				<g>
					<g>
						<g>
							<g>
								<g>
									<path class="st13" d="M139,30.9c0.1,0.1,0.3,0,0.3-0.2c0.1-0.1,0-0.3-0.2-0.3c0,0-1.4-0.5-1.8-1.5
										c-0.1-0.4-0.1-0.7,0.1-1.1c0.1-0.1,0-0.2,0-0.3c-0.1-0.1-0.2-0.1-0.3-0.1c-0.1,0-1.8,0.6-3-0.9c-0.1-0.1-0.1-0.1-0.2-0.1
										s-0.2,0.1-0.2,0.1c0,0.1-0.8,1.4-2.3,0.9c-0.1-0.1-0.3,0-0.3,0.2c-0.1,0.1,0,0.3,0.2,0.3c1.3,0.5,2.3-0.2,2.8-0.8
										c1,1,2.2,1,2.9,0.9c-0.1,0.4-0.1,0.7,0.1,1.1C137.4,30.3,138.9,30.9,139,30.9L139,30.9z"/>
								</g>
							</g>
						</g>
					</g>
				</g>
				<g>
					<g>
						<g>
							<g>
								<path class="st27" d="M133.7,33.8c0,0,1.5,0,3.5-1.3c0,0-0.9,2.8-2.2,2.6C134.3,35.1,133.7,33.8,133.7,33.8z"/>
							</g>
						</g>
					</g>
				</g>
			</g>
			<g>
				<g>
					<g>
						<path class="st22" d="M142.8,42.5c0.1,0.9-0.3,2.8-4.2,4.1c-5.5,1.9-12.4-2.3-4.5-8c0.9,0.1,1.7,0.3,2.5,0.5
							C138.7,39.6,140.8,40.8,142.8,42.5z"/>
					</g>
				</g>
			</g>
			<g>
				<g>
					<path class="st28" d="M144.5,30.2c0,0-15.6-7.1-15.1-9.3c0.4-1.5,3.3-0.3,3.3-0.3s3.7-6.2,7.7-4.7
						C145.1,17.7,151.1,20.4,144.5,30.2z"/>
				</g>
				<g>
					<path class="st29" d="M132.7,20.6c-0.4,1.5,4.6,5.2,9.3,5.7c4.7,0.5,5.3-2.6,5.5-4.1c0.2,2-0.6,4.5-2.9,8c0,0-2.3-1-5-2.4
						c-4.5-2.3-10.4-5.5-10-6.9C129.8,19.5,132.3,20.5,132.7,20.6z"/>
				</g>
				<g>
					<g>
						<path class="st29" d="M141.5,27.8c0.2,0,0.3,0,0.4-0.2c1.5-2.3,2.4-4.5,2.5-6.3c0.2-2.6-4.2-4.2-4.4-4.3
							c-0.2-0.1-0.4,0-0.5,0.2s0,0.4,0.2,0.5c1.1,0.4,4,1.9,3.9,3.5c-0.1,1.7-0.9,3.7-2.4,5.9c-0.1,0.2-0.1,0.4,0.1,0.5
							C141.4,27.8,141.5,27.8,141.5,27.8z"/>
					</g>
				</g>
				<g>
					<path class="st30" d="M139.6,21.7c0,0-3.1-1.7-3.4-2.1l-0.8,1.4c0,0,3,2,3.4,2.1L139.6,21.7z"/>
				</g>
			</g>
		</g>
		<g>
			<g>
				<path class="st31" d="M123.8,104.4c6.1-6.6,11.4-13.4,12.7-15.1c0,0.4,0,0.7-0.1,1.1c-1.7,2.2-7,8.7-12.5,14.8
					C123.9,104.9,123.8,104.7,123.8,104.4z"/>
			</g>
		</g>
		<g>
			<path class="st18" d="M105.3,19.5c0.1,0,0.3,0.1,0.4,0.1c0.3,0,0.4-0.1,0.6-0.3c-0.2-0.3-0.4-0.6-0.6-0.8
				c-0.3-0.4-0.6-0.8-0.9-1.2c-0.4-0.4-0.7-0.9-1.1-1.2c-1.8-1.3-2.4-1.2-2.5-1.2s-0.1,0.1-0.1,0.2c0,0.1,0.1,0.2,0.1,0.2
				c0.2,0.2,2,1.6,1.7,1.7h-0.1c-0.3,0-0.5,0.1-0.8,0.1c-0.1,0-0.3,0-0.4,0.1s-0.2,0.2-0.2,0.3c0,0.3,0.3,0.5,0.5,0.6
				c0.3,0.1,0.6,0.1,0.8,0.2c0.3,0.1,0.6,0.2,0.9,0.3c0.2,0.1,0.3,0.2,0.5,0.3c0.1,0.1,0.3,0.2,0.4,0.2
				C104.8,19.4,105.1,19.4,105.3,19.5z"/>
		</g>
		<g>
			<g>
				<path class="st22" d="M141.1,66.8L131.9,56c-1.4,2.2-5.9,8.2-7.6,10.2c-1.3,1.6-2.6,3.2-4.1,4.6c-1.1,1.1-2.2,2.1-3.4,3
					c-0.8,0.6-1.7,1.2-2.6,1.8c-0.3,0.2-0.6,0.3-0.9,0.5c-0.5-0.4-3-1.9-3.4-1.4c-0.5,0.6,1.2,1.3,0.8,1.5c-0.4,0.3-3.6-0.8-4,0
					c-0.4,0.7,3,0.9,2.9,1.1c-0.1,0.2-3,0.8-3.2,1.3s0.9,0.6,2.7-0.1c0,0,0.8-0.3,0.8-0.1c0,0.1-2.4,1.5-2.2,1.8
					c0.2,0.3,0.9,0,2.7-1.1c0,0,0.3-0.2,0.2,0c-0.1,0.2-1.9,1.7-1,1.8c0.8,0,3.9-2.7,4.5-3.2C129.7,77.2,141.1,66.8,141.1,66.8z"/>
			</g>
			<g>
				<g>
					<g>
						<g>
							<path class="st6" d="M144.6,44.7c1.6,1.8,2.9,3.9,3.9,6.3c0.4,1.1,0.7,2.5,0.8,4.1c0.1,2-0.4,4.2-1.8,6.3
								c-4,6-7.5,8.6-7.5,8.6s-3.3-5.7-11.5-12.7C128.5,57.3,135.9,46.3,144.6,44.7z"/>
						</g>
					</g>
				</g>
				<g>
					<g>
						<g>
							<g>
								<g>
									<path class="st19" d="M139.8,70.3c0.1,0,0.2,0,0.3,0c0.1-0.1,0.2-0.3,0.1-0.4c-0.1-0.2-2.8-4.9-11.5-12.8
										c-0.1-0.1-0.3-0.1-0.4,0s-0.1,0.3,0,0.4c8.6,7.8,11.4,12.6,11.4,12.6C139.7,70.2,139.8,70.3,139.8,70.3z"/>
								</g>
							</g>
						</g>
					</g>
				</g>
				<g>
					<g>
						<g>
							<g>
								<g>
									<path class="st19" d="M141.9,68.4c0.1,0,0.2,0,0.3,0c0.1-0.1,0.2-0.3,0.1-0.4c-0.1-0.2-3.1-5.5-11.8-13.3
										c-0.1-0.1-0.3-0.1-0.4,0s-0.1,0.3,0,0.4c8.6,7.7,11.7,13.1,11.7,13.1C141.8,68.3,141.8,68.3,141.9,68.4z"/>
								</g>
							</g>
						</g>
					</g>
				</g>
			</g>
		</g>
		<path class="st13" d="M96.7,169.6c0,0,8-7.2,3.4-9.5c-4.5-2.4-20.4,9.3-20.4,9.3h1.9c0,0,14.6-6.6,15.6-5.6
			c1.1,1.1-2.1,5.8-2.1,5.8L96.7,169.6L96.7,169.6z"/>
	</g>
</g>
</svg>
