<?xml version="1.0" encoding="utf-8"?>
<!-- Generator: Adobe Illustrator 26.5.0, SVG Export Plug-In . SVG Version: 6.00 Build 0)  -->
<svg version="1.1" id="Warstwa_1" xmlns="http://www.w3.org/2000/svg" xmlns:xlink="http://www.w3.org/1999/xlink" x="0px" y="0px"
	 viewBox="0 0 176 184" style="enable-background:new 0 0 176 184;" xml:space="preserve">
<style type="text/css">
	.st0{fill:#AD146E;}
	.st1{opacity:7.000000e-02;fill:#1C1C1C;enable-background:new    ;}
	.st2{fill:#4C9AD4;}
	.st3{fill:#338AC4;}
	.st4{fill:#5AAEE2;}
	.st5{opacity:3.000000e-02;fill:#FFFFFF;enable-background:new    ;}
	.st6{fill:#CF1A77;}
	.st7{fill:#B8106D;}
	.st8{fill:#EA5751;}
	.st9{fill:#EE745C;}
	.st10{fill:#1E7AAA;}
	.st11{fill:#0F5F79;}
	.st12{fill:#841552;}
	.st13{fill:#5C2961;}
	.st14{fill:#4B2055;}
	.st15{fill:#811551;}
	.st16{fill:#EE751F;}
	.st17{fill:#EA610A;}
	.st18{fill:#EFEFEF;}
	.st19{fill:#E95A54;}
</style>
<g>
	<g id="boy_with_shirt_2_">
		<g>
			<g>
				<path class="st0" d="M127.1,35.9l0.6,0.1l1.5,0.3h0.2c0,0-2.6,12.5-1.6,14.6c2.2,4.4,17.5,5.3,17.5,5.3s-3.7,11.2-13,11.9
					c-7.4,0.6-13.6-10.2-13-13.8C120.8,46.4,127.1,35.9,127.1,35.9z"/>
			</g>
		</g>
		<g>
			<path class="st1" d="M97.3,12.3C95.7,8.7,9.8,9.6,7.5,10.7c-0.3,0.1-0.6,1.8-0.7,4.6c2.6,0.2,2.5,4.2-0.2,4.2l0,0
				c-0.1,2.3-0.1,5-0.2,7.9c0.1,0,0.1,0,0.2,0c3.3,0,3.3,5.1,0,5.1c-0.1,0-0.1,0-0.2,0c0,2.5,0,5.2,0,7.9c0.1,0,0.2,0,0.2,0
				c3.3,0,3.3,5.1,0,5.1c-0.1,0-0.1,0-0.2,0c0,2.6,0,5.2,0.1,7.9l0,0c3.3,0,3.3,5.1,0,5.1c0,2.7,0.1,5.4,0.1,8l0,0
				c3.3,0,3.3,5.1,0.1,5.1c0,2.7,0.1,5.3,0.1,7.7c3.2,0.1,3.2,5,0.1,5.1C7,87.3,7,90,7.1,92.3c3.1,0.1,3.2,4.9,0.1,5.1
				c0.1,2.5,0.1,3.9,0.1,3.9l85.9-0.5C93.1,101.1,98.9,15.9,97.3,12.3z"/>
			<path class="st2" d="M7.3,101.6c0,0,1.1,2.8,1.7,3.1c0.6,0.3,86.9,2.5,90,0.3c3.1-2.3,32.8-78.9,32.8-80.1c0-1.1-1.4-2.8-1.7-3.1
				c-0.3-0.3-87.1-3.4-90-2.8C37.2,19.6,7.3,101.6,7.3,101.6z"/>
			<path class="st3" d="M42.4,21.6c1.7-0.5,71.3,2.4,89.4,3.2c-0.1-1.1-1.4-2.7-1.7-2.9c-0.3-0.3-87.1-3.4-90-2.8
				c-2.9,0.6-32.8,82.5-32.8,82.5s1,2.5,1.6,3l0.1,0.1C9,104.7,40.4,22.1,42.4,21.6z"/>
			<path class="st4" d="M20.6,79.8c0,0,20.7-56,23.2-56.9c2.5-0.8,63.1,2.3,63.1,2.3s-60.8-1.4-62.5,0
				C42.7,26.6,20.6,79.8,20.6,79.8z"/>
			<path class="st4" d="M46.1,104.4c0,0,49.8,1.4,52.1-1.1c2.3-2.5,19.6-47.5,19.6-47.5s-18.7,44.6-22.4,46
				C91.6,103.3,46.1,104.4,46.1,104.4z"/>
			<path class="st5" d="M127.3,28.3c0,0-26,73.3-29.1,75s-82,0.8-84,0.3c-2-0.6,27.4-21.8,36.5-23.2c9.1-1.4,24.9,5.7,31.1-5.1
				s12.2-24.6,19-28.9S122.5,26.6,127.3,28.3z"/>
		</g>
		<g>
			<g>
				<g>
					<path class="st6" d="M169.2,173.5c-0.2,0.1-0.4,0.1-0.6,0.1c-1.4,0.1-8.8,0.8-9-0.4c-0.2-1.3,2-4.4,7.6-2.4
						C171.7,172.4,170.1,173.2,169.2,173.5z"/>
				</g>
				<g>
					<path class="st7" d="M167.3,170.8c-0.3-0.1-0.5-0.2-0.7-0.2c1.1,1.1-0.9,2.5-4,2.6c-2,0.1-2.5-0.4-2.7-0.9
						c-0.2,0.4-0.2,0.7-0.2,1c0.2,1.2,7.6,0.5,9,0.4c0.2,0,0.4-0.1,0.6-0.1C170.1,173.2,171.7,172.4,167.3,170.8z"/>
				</g>
			</g>
			<g>
				<path class="st8" d="M168.9,171.5l-3.1-9.8c-0.1-0.2-0.3-0.3-0.5-0.3l-1.2,0.3c-0.2,0.1-0.4,0.3-0.3,0.5l3.4,8.8
					c0.2,0.5,0.6,0.8,1.1,0.8h0.2C168.8,172.1,169,171.8,168.9,171.5z"/>
			</g>
		</g>
		<g>
			<g>
				<g>
					<path class="st6" d="M142.3,174.3c-0.2,0.1-0.4,0.1-0.6,0.1c-1.4,0.1-8.8,0.8-9-0.4c-0.2-1.3,2-4.4,7.6-2.4
						C144.8,173.1,143.2,174,142.3,174.3z"/>
				</g>
				<g>
					<path class="st7" d="M140.3,171.6c-0.3-0.1-0.5-0.2-0.7-0.2c1.1,1.1-0.9,2.5-4,2.6c-2,0.1-2.5-0.4-2.7-0.9
						c-0.2,0.4-0.2,0.7-0.2,1c0.2,1.2,7.6,0.5,9,0.4c0.2,0,0.4-0.1,0.6-0.1C143.2,174,144.8,173.1,140.3,171.6z"/>
				</g>
			</g>
			<g>
				<path class="st9" d="M142,172.2l-0.9-11.2c-0.1-0.2-0.3-0.3-0.5-0.3l-1.2,0.3c-0.2,0.1-0.4,0.3-0.3,0.5l1.2,10.3
					c0.2,0.5,0.6,0.8,1.1,0.8h0.2C141.9,172.8,142.1,172.5,142,172.2z"/>
			</g>
		</g>
		<g>
			<path class="st9" d="M96.9,76.9c0,0-1.2-3.5-1.9-3.3c-0.7,0.2,0.2,1.7-0.3,1.7s-2.4-2.8-3.2-2.4c-0.7,0.3,1.9,2.5,1.7,2.6
				c-0.2,0.1-2.9-1.2-3.3-0.9c-0.4,0.3,0.3,1,2.2,1.5c0,0,0.8,0.2,0.7,0.3c-0.1,0.1-2.8-0.3-2.8,0.1s0.7,0.5,2.8,0.8
				c0,0,0.4,0,0.2,0.1c-0.2,0.1-2.5,0.3-1.9,0.8c0.7,0.5,5.7,0.1,5.7,0.1L96.9,76.9z"/>
		</g>
		<g>
			<path class="st3" d="M156.3,95.2c0,0,1.7,30.8,1.6,34.7c-0.1,3.8,8.6,33,8.6,33s0.8-0.5,1,0.1s1.4,3,0.3,3.4s-3.4,1.5-3.7,0.8
				c-0.3-0.7-1.8-3.4-0.1-3.7c0,0-12.8-27.9-13.9-32.2c-1-4.3-3.2-15.1-3.2-15.1s-5.6,16-5.8,16.9c-0.2,0.8,0.6,31.3,0.6,31.3
				s1-0.1,1.1,0.6c0.1,0.7,0.5,2.8-0.3,3s-4.3,0.8-4.6,0.1c-0.2-0.7-0.9-3.5,1-3.7c0,0-6.1-31.1-5.9-34.1c0.2-3,3.3-33.9,3.3-33.9
				L156.3,95.2z"/>
		</g>
		<g>
			<path class="st10" d="M146.9,116.1c0,0,1.8-6,2.4-9.8c0,0,7,0.1,7.1-8.4c0.4,7.6,1.5,28.8,1.4,32c-0.1,3.8,8.6,33,8.6,33
				s0.8-0.5,1,0.1s1.4,3,0.3,3.4s-3.4,1.5-3.7,0.8c-0.3-0.7-1.8-3.4-0.1-3.7c0,0-12.8-27.9-13.9-32.2
				C149.1,126.8,146.9,116.1,146.9,116.1z"/>
		</g>
		<g>
			<path class="st11" d="M149.3,106.3c0-0.1,0.1-0.2,0.3-0.2c0.1,0,0.2,0.1,0.2,0.3c0,0-0.6,4.2-2.7,10.8c-0.1-0.7-0.2-1-0.2-1
				s0,0,0,0.1C148.8,110.1,149.3,106.3,149.3,106.3z"/>
		</g>
		<g>
			<path class="st11" d="M164.3,163.4L164.3,163.4c-0.1,0-0.3-0.1-0.3-0.2c0-0.1,0.1-0.3,0.2-0.3c0,0,1-0.1,2-0.6
				c0.1,0.3,0.1,0.5,0.1,0.5C165.3,163.3,164.4,163.4,164.3,163.4z"/>
		</g>
		<g>
			<path class="st9" d="M141.2,46.6l0.7,9.9l-3.8,0.4l0.2-4.1c0,0-2.1,1.5-3.8,0.4c-1.6-0.9-0.9-8.1-0.9-8.1L141.2,46.6z"/>
		</g>
		<g>
			<path class="st6" d="M95.6,78.7c0,0,15,10.9,22.6,9.5c5-0.9,9.4-8.7,9.4-8.7s5.1,11.4,7,17.1c0,0,8.1,7.5,22.8-1.9
				c0,0,3.6-23,0.1-32c-3.2-8.2-18.3-6.9-22.7-5.6c-7,1.9-13.4,8.8-22,19.7c0,0-8.8,1.8-16-0.4C96.9,76.4,95.6,77,95.6,78.7z"/>
		</g>
		<g>
			<path class="st7" d="M131.1,71.9c0,0,2.2,20.5,16.8,19.6c6.6-0.4,9.6-5.1,11-10.1c-0.4,7.2-1.4,13.3-1.4,13.3
				c-14.7,9.3-22.8,1.9-22.8,1.9c-1.8-5.5-6.7-16.5-7-17C128.7,77.6,130,75.1,131.1,71.9z"/>
		</g>
		<g>
			<g>
				<path class="st12" d="M95.7,78.1L95.7,78.1c3.7,2.6,8.5,5.7,13.1,7.8c5.5,2.4,9.6,2.7,12.3,0.8c6.2-4.4,9.9-15.5,10-15.6
					c0-0.1,0.2-0.2,0.3-0.2c0.1,0,0.2,0.2,0.2,0.3c0,0-1,2.9-2.7,6.2c-1.6,3.1-4.2,7.3-7.5,9.6c-1.2,0.8-2.7,1.3-4.4,1.3
					c-2.4,0.1-5.2-0.6-8.4-2c-4.6-2-9.3-5.1-13-7.7C95.6,78.6,95.7,78.1,95.7,78.1z"/>
			</g>
		</g>
		<g>
			<path class="st13" d="M138,49.9c0,0,2.2,3.5,4.8,1.9c2.6-1.6,1.1-4.8,1.1-4.8s1.2,0.6,1.2,0s-1.1-0.5-1.1-0.5s2.1-1,1.5-2.1
				s-1.9,0.3-1.9,0.3s-1.2-4.1-7-5.1s-7.3,6.7,1.1,8c0,0,1.8-1.7,2.2,0.4C140.6,51.1,138,49.9,138,49.9z"/>
		</g>
		<g>
			<path class="st14" d="M144,46.5c0,0,1.1-0.1,1.1,0.5s-1.2,0-1.2,0s1.5,3.2-1.1,4.8s-4.8-1.9-4.8-1.9s2.6,1.1,1.9-1.9
				c-0.5-2.1-2.2-0.4-2.2-0.4c-4.5-0.7-6.1-3.1-5.9-5.2c0.5,3.1,7.4,4.6,9.7,3.6c1.7-0.7,1.4-2.2,1-3.3c0.9,1,1.1,1.9,1.1,1.9
				s1.3-1.4,1.9-0.3C146.1,45.5,144,46.5,144,46.5z"/>
		</g>
		<g>
			<path class="st9" d="M134.7,57.1h0.1c1.9-0.5,5.7-1.1,9.9-0.9C143.4,56.7,140.2,57.5,134.7,57.1z"/>
		</g>
		<g>
			<path class="st15" d="M150.2,95.2c3.9-1.2,6.8-3.1,7.7-3.7c0,0.2-0.1,0.5-0.1,0.7c-1.2,0.8-3.9,2.4-7.5,3.5
				c-2.3,0.7-4.6,1.1-6.8,1.2c-0.5,0-0.9,0-1.4,0c-2.9-0.1-5.7-0.9-8.2-2.2c-0.1-0.2-0.2-0.5-0.3-0.7c2.6,1.5,5.5,2.3,8.5,2.4
				C144.8,96.5,147.5,96.1,150.2,95.2z"/>
		</g>
		<g>
			<g>
				<path class="st16" d="M145.1,47.7c0,0-16.5-2.2-16.6-4.4c0-1.5,3-1.2,3-1.2s1.7-6.8,5.8-6.5C142.2,35.9,148.6,36.8,145.1,47.7z"
					/>
			</g>
			<g>
				<path class="st17" d="M131.5,42.1c1.2,1,5.3,2.8,10.2,2.7c4.6-0.1,4.2-3.9,3.9-5.3c0.7,1.8,0.7,4.4-0.5,8.2
					c0,0-16.5-2.2-16.6-4.4C128.5,41.9,131.2,42.1,131.5,42.1z"/>
			</g>
			<g>
				<g>
					<path class="st17" d="M141.7,46.3c0.2,0,0.3-0.1,0.3-0.3c0.8-2.6,1-4.8,0.6-6.6c-0.6-2.4-5.1-2.8-5.3-2.8
						c-0.2,0-0.4,0.1-0.4,0.3s0.1,0.4,0.3,0.4c1.2,0.1,4.2,0.6,4.6,2.2c0.4,1.6,0.2,3.7-0.6,6.2c-0.1,0.2,0.1,0.4,0.2,0.5
						C141.7,46.3,141.7,46.3,141.7,46.3z"/>
				</g>
			</g>
			<g>
				<path class="st18" d="M138.2,41.2c0,0-3.4-0.7-3.8-1l-0.3,1.5c0,0,3.4,1,3.8,1L138.2,41.2z"/>
			</g>
		</g>
		<g>
			<path class="st19" d="M127.8,35.9L127.8,35.9l1.5,0.4c0.1-0.9,0.4-2.8,0.5-3.4c0.1-0.7-0.4-1.4-0.4-1.4l-0.9,2.4
				c0,0-1.1-1.8-1.6-1C126.7,33.4,127.6,35.6,127.8,35.9z"/>
		</g>
	</g>
</g>
</svg>
