<?xml version="1.0" encoding="utf-8"?>
<!-- Generator: Adobe Illustrator 26.5.0, SVG Export Plug-In . SVG Version: 6.00 Build 0)  -->
<svg version="1.1" id="Warstwa_1" xmlns="http://www.w3.org/2000/svg" xmlns:xlink="http://www.w3.org/1999/xlink" x="0px" y="0px"
	 viewBox="0 0 103 270" style="enable-background:new 0 0 103 270;" xml:space="preserve">
<style type="text/css">
	.st0{opacity:0.2;fill:#1C1C1C;enable-background:new    ;}
	.st1{fill:#F9AF1B;}
	.st2{fill:#EE9603;}
	.st3{fill:#343434;}
	.st4{fill:#1C1C1C;}
	.st5{fill:#648733;}
	.st6{fill:#75A832;}
	.st7{opacity:0.3;fill:#648733;enable-background:new    ;}
	.st8{fill:#84B83B;}
	.st9{opacity:0.15;fill:#FFFFFF;enable-background:new    ;}
	.st10{fill:#EE7461;}
	.st11{opacity:0.5;fill:#FFFFFF;enable-background:new    ;}
	.st12{fill:#D6D7D7;}
	.st13{fill:#EE7565;}
	.st14{fill:#EE7460;}
	.st15{fill:#592D5F;}
	.st16{fill:#4B2055;}
	.st17{fill:#F2BF75;}
	.st18{fill:#4795D1;}
	.st19{fill:#EBAE62;}
	.st20{fill:#D1883A;}
	.st21{fill:#351A43;}
	.st22{fill:#E85854;}
	.st23{fill:#F0F0F0;}
	.st24{fill:#562F5E;}
	.st25{fill:#4A2254;}
	.st26{fill:#D20A76;}
	.st27{fill:#BB0E6D;}
	.st28{fill:#EE751F;}
	.st29{fill:#EA610A;}
	.st30{fill:#EFEFEF;}
	.st31{fill:#E75A57;}
</style>
<g>
	<g>
		<path class="st0" d="M77.6,16.8c0,0,0.5-9-2.1-9.5C72.8,6.8,61.7,6,60.7,8.4c-1.1,2.4-2.7,201.7,0.8,202.7
			c3.4,1.1,15.1,1.1,15.6-0.8c1-3.5,1.3-150.5,1.3-150.5l-10.7-15L77.6,16.8z"/>
		<path class="st1" d="M96.8,122.2l-2.5-1.8V86.2l2.2-1.7c-0.4-27.3-1-51.3-1.7-54.8C93.2,21.4,78.9,9.7,75.7,9.2
			C72.5,8.7,63,9.7,63,9.7s-1.3,178.4,0,180c1.3,1.6,11.4,0.3,11.4,0.3s18.8-8.5,21.2-18.6C96.6,167.6,96.9,146.8,96.8,122.2z
			 M78.1,52.3c-2.8-1.8-4.7-5.4-4.7-9.5s1.9-7.7,4.7-9.5c2.8,1.8,4.7,5.4,4.7,9.5C82.8,47,80.9,50.5,78.1,52.3z"/>
		<path class="st2" d="M84.8,29.3C83.4,25,69.5,14.7,63.1,10.1c0,5.3-1.3,178.3,0,179.8c0.1,0.1,0.1,0.1,0.2,0.2
			c5.2-3.9,21.7-16.7,22.6-20.3C86.9,165.4,86.6,34.8,84.8,29.3z M78.1,52.3c-2.8-1.8-4.7-5.4-4.7-9.5s1.9-7.7,4.7-9.5
			c2.8,1.8,4.7,5.4,4.7,9.5C82.8,47,80.9,50.5,78.1,52.3z"/>
		<path class="st3" d="M74,30.3c-5.6,0-10.2,5.6-10.2,12.5S68.4,55.3,74,55.3c5.6,0,10.2-5.6,10.2-12.5S79.7,30.3,74,30.3z
			 M78.1,52.3c-2.8-1.8-4.7-5.4-4.7-9.5s1.9-7.7,4.7-9.5c2.8,1.8,4.7,5.4,4.7,9.5C82.8,47,80.9,50.5,78.1,52.3z"/>
		<g>
			<path class="st4" d="M74,53.5c1.5,0,2.9-0.4,4.1-1.2c-2.8-1.8-4.7-5.4-4.7-9.5s1.9-7.7,4.7-9.5c-1.2-0.8-2.6-1.2-4.1-1.2
				c-4.8,0-8.7,4.8-8.7,10.7C65.3,48.8,69.2,53.5,74,53.5z"/>
		</g>
		<path class="st5" d="M82.3,46.3c-2.6-4-6.7-10.2-7.2-10.7c-1.4-1.9-4.1-1.6-5.6-0.2c-1.5,1.4-1.9,2.9-1.3,4.1c0,0,6,9.8,8.6,13.4
			C78.1,52.5,81.1,50.5,82.3,46.3z"/>
		<g>
			<path class="st6" d="M82,47.3c-2.7-4.2-7.7-11.7-8.2-12c-0.7-0.4-2.4-0.3-3.5,0.4c-1,0.7-1.8,2.2-1.6,3.3c0,0,6.3,10.2,8.7,13.7
				C78.9,52,80.8,50.5,82,47.3z"/>
			<path class="st7" d="M79.3,43.2c1,1.5,0.8,3.4-0.5,4.3c-1.3,0.8-3.1,0.3-4.1-1.2s-0.8-3.4,0.5-4.3C76.4,41.2,78.3,41.7,79.3,43.2
				z"/>
			<path class="st8" d="M78.8,43.5c0.8,1.2,0.6,2.7-0.4,3.4s-2.5,0.2-3.3-1s-0.6-2.7,0.4-3.4C76.5,41.8,78,42.3,78.8,43.5z"/>
			<path class="st4" d="M70.1,42.5l6.8-4.5c-0.1-0.1-0.1-0.2-0.2-0.3l-6.8,4.5C69.9,42.3,70,42.5,70.1,42.5z"/>
			<path class="st4" d="M75.5,51l6.9-4.6c-0.1-0.1-0.1-0.2-0.2-0.3l-6.9,4.6C75.4,50.8,75.5,51,75.5,51z"/>
		</g>
		<g>
			<path class="st3" d="M94.3,120.4V86.2l3.3-2.5c-0.1-5.8-0.3-9.8-0.7-9.9c0,0-10.3-0.3-11.4,0s-9,6.9-9.8,8.2
				c-0.8,1.3-0.5,36.3-0.3,37.6c0.3,1.3,9.9,12.2,10.7,12.6c0.7,0.4,10.5,0.4,11.1-0.4c0.1-0.2,0.3-3.8,0.4-9.1L94.3,120.4z"/>
			<g>
				<path class="st4" d="M86.5,131L86.5,131L86.5,131z"/>
				<path class="st4" d="M97.6,122.8l-3.3-2.3V86.3l3.2-2.4c-1.6,0-9.9-0.1-10.3-0.5c-0.5-0.5-1.3-8.7-1.3-8.7s0.5,8.6,0.3,9.2
					c-0.3,0.6-6.4,3.8-6.6,4.6s0,26.8,0.3,27.8c0.3,1.1,6.3,6.2,6.6,6.9c0.3,0.7,0.2,7.5,0.2,8c0-0.5,0.1-7.8,0.9-8
					C88,122.9,94.1,122.8,97.6,122.8L97.6,122.8z"/>
			</g>
			<g>
				<path class="st5" d="M83,89.7c0,0-0.8,24.9,0,27s3.6,4.2,6.8,3.9c3.1-0.3,5.2-1.8,5.5-4.2c0.2-1.9,0.1-24.4,0-26
					c-0.3-3.6-3.9-5.5-7-4.9C85.1,85.9,83.3,87.5,83,89.7z"/>
				<path class="st5" d="M83,89.7c0,0-0.8,24.9,0,27s3.6,4.2,6.8,3.9c3.1-0.3,5.2-1.8,5.5-4.2c0.2-1.9,0.1-24.4,0-26
					c-0.3-3.6-3.9-5.5-7-4.9C85.1,85.9,83.3,87.5,83,89.7z"/>
				<path class="st6" d="M84.2,89.4c0,0-0.8,25.7-0.3,27s1.9,2.7,5.6,2.9c3.7,0.3,4.6-3.2,4.6-3.2s0.2-26.2-0.4-27.3
					c-0.5-1.1-2.9-2.4-4.8-2.4S84.8,87.8,84.2,89.4z"/>
				<path class="st7" d="M93.1,102.4c0,1.9-1.3,3.4-2.9,3.4s-2.9-1.5-2.9-3.4s1.3-3.4,2.9-3.4S93.1,100.4,93.1,102.4z"/>
				<path class="st8" d="M92.5,102.4c0,1.5-1,2.8-2.3,2.8s-2.3-1.2-2.3-2.8c0-1.5,1-2.8,2.3-2.8S92.5,100.9,92.5,102.4z"/>
				<path class="st4" d="M82.9,94.9h12.4c0-0.2,0-0.4,0-0.5H82.9C82.9,94.5,82.9,94.8,82.9,94.9z"/>
				<path class="st4" d="M82.7,110.4h12.7c0-0.2,0-0.4,0-0.5H82.7C82.7,110,82.7,110.3,82.7,110.4z"/>
			</g>
		</g>
		<path class="st9" d="M87.2,72.2c0,0,0-41.1-1.3-44S65.8,10.3,65.8,10.3s13.8,5.6,15.9,8c2.1,2.4,4,6.4,5.6,6.9s5.6,0.8,6.4,2.1
			s-5,0.8-5.6,1.9C87.4,30.3,87.9,70.5,87.2,72.2z"/>
		<path class="st9" d="M87.7,133.9c0,0-1.6,35.5-0.5,36.3s7.4,1.3,7.4,0.8s-5.8-1.1-6.1-2.1C88.2,167.9,87.7,133.9,87.7,133.9z"/>
	</g>
	<g>
		<path class="st10" d="M89.3,130.5c0,0-0.1-3.2,0.5-3.3c0.6-0.1,0.4,1.5,0.8,1.3s1.1-3,1.9-3c0.7,0-0.7,2.7-0.5,2.7s2-1.9,2.4-1.8
			s0,1-1.3,2c0,0-0.6,0.5-0.5,0.5s2.2-1.1,2.4-0.8c0.1,0.3-0.4,0.7-2,1.5c0,0-0.3,0.1-0.1,0.2c0.2,0,2.2-0.6,1.8,0.1
			c-0.4,0.7-4.6,1.9-4.6,1.9L89.3,130.5z"/>
		<path class="st11" d="M46.9,127.9l-2.1,1.3l0.3,2.5c0,0,2-0.7,2.6-0.9C47.5,129.9,47.2,128.9,46.9,127.9z"/>
		<g>
			<ellipse class="st12" cx="48.2" cy="258.1" rx="41.8" ry="5.9"/>
		</g>
		<g>
			<g>
				<g>
					<path class="st13" d="M37.1,107.5c-0.1-0.3-0.3-0.6-0.4-0.9c-0.2-0.5-0.3-1-0.5-1.5s-0.4-0.9-0.3-1.4c0.1-0.3,0.2-0.6,0.2-0.8
						c0-0.3,0-0.7-0.1-1c-0.1-0.2-0.2-0.4-0.2-0.7c0.1-0.7,1.1-0.6,1.4-0.2c0.1,0.1,0.1,0.3,0.1,0.5c0.1,0.5,0,1-0.2,1.4
						c0.6-0.4,1.1-0.7,1.8-0.9c0.1,0,0.3-0.1,0.4,0c0.1,0,0.3,0.1,0.3,0.3c0,0.1,0,0.1,0,0.2c0.1,0.3,0.6,0.4,0.6,0.7
						c0,0.1-0.1,0.3-0.1,0.4c0,0.2,0.2,0.3,0.2,0.5c0,0.1-0.1,0.2-0.1,0.4c0,0.2,0,0.3,0,0.5c0,0.3-0.2,0.7-0.5,0.9
						c-0.3,0.2-0.6,0.4-0.9,0.5c-0.3,0.1-0.5,0.3-0.7,0.5c-0.1,0.1-0.1,0.2-0.1,0.3l0.1,0.1c0,0.1,0,0.2,0.1,0.3c0,0.2,0.5,2,0.5,2
						c-0.3,0.1-0.6,0.2-0.9,0.4c-0.1-0.3-0.2-0.6-0.3-1C37.5,108.4,37.3,107.9,37.1,107.5z"/>
				</g>
			</g>
		</g>
		<g>
			<g>
				<polygon class="st14" points="55.9,248.9 54.9,254.2 53.8,253.6 54.5,248.5 				"/>
			</g>
			<g>
				<path class="st15" d="M57.5,256.6c0,0,2.5-0.5,3.2,1.1c0.8,1.9-1.4,2.3-2.8,2.2c-1.3-0.1-2.4-0.3-3.7-2.8
					c-1.4-2.5-2-4.4-0.4-4.4C55.4,252.8,57.5,256.6,57.5,256.6z"/>
			</g>
			<g>
				<path class="st16" d="M53.8,252.8c1.6,0,3.7,3.9,3.7,3.9l0,0c0.3,0.5,0.6,1.1,0.6,1.5c0.1,0.7,2.8,0.6,2.3-0.9
					c0.1,0.1,0.2,0.3,0.3,0.5c0.8,1.9-1.4,2.3-2.8,2.2c-1.3-0.1-2.4-0.3-3.7-2.8C52.9,254.6,52.3,252.8,53.8,252.8z"/>
			</g>
		</g>
		<g>
			<g>
				<polygon class="st14" points="40.8,248.9 39.8,254.2 38.7,253.6 39.4,248.5 				"/>
			</g>
			<g>
				<path class="st15" d="M42.4,256.6c0,0,2.5-0.5,3.2,1.1c0.8,1.9-1.4,2.3-2.8,2.2c-1.3-0.1-2.4-0.3-3.7-2.8
					c-1.4-2.5-2-4.4-0.4-4.4C40.3,252.8,42.4,256.6,42.4,256.6z"/>
			</g>
			<g>
				<path class="st16" d="M38.7,252.8c1.6,0,3.7,3.9,3.7,3.9l0,0c0.3,0.5,0.6,1.1,0.6,1.5c0.1,0.7,2.8,0.6,2.3-0.9
					c0.1,0.1,0.2,0.3,0.3,0.5c0.8,1.9-1.4,2.3-2.8,2.2c-1.3-0.1-2.4-0.3-3.7-2.8C37.8,254.6,37.2,252.8,38.7,252.8z"/>
			</g>
		</g>
		<g>
			<g>
				<path class="st17" d="M36.9,180.4l18.9-1.6c0,0,9,32.6,8.2,36.8c-0.8,4.2-7.8,34.5-7.8,34.5l-2.7-0.4c0,0,5-33.5,4.5-35.3
					c-0.3-1-5.1-10.8-9.4-19.6c-0.6,7.8-1.3,16.3-1.5,18.7c-0.3,4.8-6,36.3-6,36.3h-2.5c0,0,2-31,2.3-33
					C41.3,214.9,36.9,180.4,36.9,180.4z"/>
			</g>
			<g>
				<g>
					<path class="st18" d="M47.3,192.1L47.3,192.1L47.3,192.1L47.3,192.1z"/>
				</g>
			</g>
			<g>
				<path class="st19" d="M55.8,178.9c0,0,6,21.8,7.8,32.1c-1.4-5.6-6.1-21.5-10-25.4c-5.5-5.4-16.3,0.1-11.2,4
					c0.3,0.2,4.1,1.4,4.1,1.4l2.1,3.9c-0.6,7.7-1.3,16.2-1.5,18.6c-0.3,4.8-6,36.6-6,36.6l-2.5-0.3c0,0,2-31,2.3-33s-4-36.4-4-36.4
					L55.8,178.9z"/>
			</g>
			<g>
				<g>
					<path class="st20" d="M42.1,189.5c0-0.1,0.2-0.2,0.3-0.2l4.3,1.6v0.1c9,17.8,11.7,24.2,11.8,24.3v0.1L54,249.8v0.1
						c-0.2,0-0.3,0-0.5-0.1v-0.1l4.5-34.2c-0.3-0.7-3.2-7.3-11.7-24.1l-4.1-1.5C42.1,189.8,42,189.6,42.1,189.5z"/>
				</g>
			</g>
		</g>
		<g>
			<g>
				<path class="st21" d="M44.9,147.6c-1,0.1-16.8-2.4-14.9-5.3c3.3-4.7,5.6-19.4,5.6-19.4c0.6-5.4,0.9-15.4,0.9-15.4
					c1.1-0.9,2.1-0.5,2.1-0.5s3.9,6.2,5.3,20.3C44.1,129.9,45.2,145.4,44.9,147.6z"/>
			</g>
		</g>
		<g>
			<path class="st14" d="M36.6,132.4l5.8,10.4l4-1.9l-2.3-4.6c0,0,2.3-0.1,3.3-1.9c0.9-1.5-2.6-6.5-2.6-6.5L36.6,132.4z"/>
		</g>
		<g>
			<path class="st22" d="M42.1,136c0.9,0.3,2,0.1,2,0.1l1.1,2.2C42.3,138.2,42.1,136,42.1,136z"/>
		</g>
		<path class="st23" d="M40.4,141.5c0,0-0.8-2.2-0.3-2.5s6-1.4,7.7-0.3c1.6,1.1,1.6,2.7,1.6,2.7L40.4,141.5L40.4,141.5z"/>
		<g>
			<path class="st24" d="M31.1,157.1c0,0.3,1.6,13.5,3.3,22.8c0,0,10.3,6.8,24.3-1.3l4-19.8c0,0,7.4-3.5,16.9-14.5
				c6.7-7.7,10.7-12.4,10.7-12.4s-0.3-1.7-1.4-1.7c0,0-8.9,4.4-14.1,7c-5.1,2.5-17.2,4.2-22.8,3.4c-3.8-0.6-8-0.9-10.9-0.1
				C34.8,142.2,30.1,147.1,31.1,157.1z"/>
		</g>
		<path class="st25" d="M33.2,146c0.2-0.3,0.4-0.6,0.6-0.8c0.5-0.6,1-1.2,1.6-1.7c0.3-0.3,0.6-0.5,0.9-0.7c0.8-0.6,1.7-1,2.6-1.4
			c0.7-0.3,1.5-0.6,2.3-0.8l0,0c0.2,0,0.3-0.1,0.5-0.1c0.1,0,0.1,0,0.2,0c0.1,0,0.3,0,0.4-0.1c0.1,0,0.1,0,0.2,0
			c0.2,0,0.4-0.1,0.5-0.1c-1.9,1.4-5.8,5.1-6.3,13.1c-0.6,10.7,4.1,16.8,13,17c0.7,0,1.3,0,1.9-0.1c8.5-1.6,6.9-10.2,6.9-10.2l4.2-1
			l-4,19.5c-0.4,0.2-0.8,0.4-1.2,0.7c-0.2,0.1-0.4,0.2-0.6,0.3l0,0c-0.2,0.1-0.4,0.2-0.6,0.3l0,0c-0.2,0.1-0.4,0.2-0.6,0.3l0,0
			c-0.2,0.1-0.4,0.2-0.6,0.2l0,0c-0.2,0.1-0.4,0.2-0.6,0.2c0,0,0,0-0.1,0c-0.2,0.1-0.4,0.1-0.5,0.2c0,0,0,0-0.1,0
			c-0.2,0.1-0.4,0.1-0.5,0.2c0,0,0,0-0.1,0c-0.2,0.1-0.4,0.1-0.5,0.2c0,0,0,0-0.1,0c-0.2,0.1-0.4,0.1-0.5,0.2c0,0,0,0-0.1,0
			c-0.2,0.1-0.3,0.1-0.5,0.2l0,0c-0.2,0-0.3,0.1-0.5,0.1l0,0c-0.2,0-0.3,0.1-0.5,0.1l0,0c-0.2,0-0.3,0.1-0.5,0.1l0,0
			c-0.2,0-0.3,0.1-0.5,0.1l0,0c-0.2,0-0.3,0.1-0.5,0.1l0,0c-4.4,0.7-8.1,0.1-10.6-0.7l0,0c-0.1,0-0.2-0.1-0.3-0.1l0,0
			c-0.1,0-0.2-0.1-0.3-0.1l0,0c-0.1,0-0.2-0.1-0.3-0.1l0,0c-0.1,0-0.2-0.1-0.2-0.1l0,0c-0.1,0-0.2-0.1-0.2-0.1l0,0
			c-0.1,0-0.1-0.1-0.2-0.1l0,0c-0.1,0-0.1-0.1-0.2-0.1l0,0c-0.1,0-0.1-0.1-0.2-0.1l0,0c-0.1,0-0.1-0.1-0.2-0.1l0,0
			c-0.1,0-0.1-0.1-0.2-0.1l0,0c-0.1,0-0.1,0-0.2-0.1l0,0c0,0-0.1,0-0.1-0.1l0,0c0,0-0.1,0-0.1-0.1l0,0c0,0-0.1,0-0.1-0.1l0,0
			c0,0-0.1,0-0.1-0.1l0,0h-0.1l0,0h-0.1l0,0c0,0,0,0-0.1,0l0,0c0,0,0,0-0.1,0l0,0l0,0l0,0l0,0c0,0,0,0-0.1,0l0,0l0,0
			c-0.2-0.9-0.3-1.8-0.5-2.7c0-0.2-0.1-0.3-0.1-0.5c-0.1-0.8-0.3-1.6-0.4-2.4c-0.1-0.6-0.2-1.3-0.3-1.9c0-0.2-0.1-0.4-0.1-0.5
			c0-0.3-0.1-0.6-0.1-0.8V171c-0.1-0.5-0.1-0.9-0.2-1.4c0-0.2,0-0.3-0.1-0.5c0-0.3-0.1-0.6-0.1-0.9s-0.1-0.6-0.1-0.9
			s-0.1-0.6-0.1-0.8v-0.1c0-0.3-0.1-0.5-0.1-0.7s0-0.3-0.1-0.5c-0.1-0.6-0.1-1.1-0.2-1.6c0-0.1,0-0.3-0.1-0.4
			c-0.4-3.4-0.7-5.9-0.7-6C30.6,152.4,31.5,148.8,33.2,146z"/>
		<g>
			<path class="st26" d="M43.8,128.8c0,0,3.5,0.5,2.9-3.8c-0.6-4.3-11.8-4.1-12.6,1.4c-1.2,7.5-4.2,5.5-9.8,6s-6.2,8.6-4.6,11.7
				c1.6,3,3.9,1.9,5.8,5.8c1.9,3.9,5.8,5.8,10.1,2.9s4.1-6.7,4-9.5s-0.2-2.8,0.7-4.9c1-2.1,1.4-2.5,1-4.1c0,0-1.3,1-1.7-0.2
				s-0.3-2.9,1.4-2.1C41,131.9,42.9,131.1,43.8,128.8z"/>
		</g>
		<g>
			<path class="st27" d="M33,142.4c5.8-3.4,1.9-12,1.9-12s5.1,0.2,7.3-4.4c1.4-3-0.1-3.6-1.3-3.7c2.9-0.4,5.5,0.5,5.8,2.7
				c0.6,4.3-2.9,3.8-2.9,3.8c-1,2.4-2.8,3.1-2.8,3.1c-1.8-0.8-1.8,0.8-1.4,2.1s1.7,0.2,1.7,0.2c0.5,1.6,0,2-1,4.1s-0.8,2.1-0.7,4.9
				s0.3,6.6-4,9.5s-8.2,1-10.1-2.9c-1.9-3.9-4.2-2.8-5.8-5.8c-0.9-1.8-1.1-5.3,0-8C18.4,141.6,26.9,145.9,33,142.4z"/>
		</g>
		<g>
			<path class="st21" d="M58.4,160.4c-0.1,0-0.3-0.1-0.3-0.2s0.1-0.3,0.2-0.3c1.8-0.1,4.4-1,4.4-1l-0.1,0.6
				C61.5,159.9,60.1,160.2,58.4,160.4L58.4,160.4z"/>
		</g>
		<path class="st4" d="M40.6,131.8c0,0,6.1-4.1,6.4-4.1c0.3,0,1.1,3,0.8,3.3s-1,0.5-1,0.5l-0.2-0.4c0,0,0.8-0.2,0.8-0.5
			s-0.5-2.2-0.5-2.2l-5.8,3.6L40.6,131.8z"/>
		<g>
			<g>
				<path class="st28" d="M32.9,130.2c0,0,16.1-6.4,15.6-8.7c-0.3-1.5-3.3-0.5-3.3-0.5s-3.4-6.4-7.5-5.1
					C32.8,117.5,26.6,120,32.9,130.2z"/>
			</g>
			<g>
				<path class="st29" d="M45.2,121.2c-1,1.3-4.6,4.2-9.6,5.3c-4.6,1-5.3-2.9-5.3-4.4c-0.3,2,0.4,4.6,2.6,8.2c0,0,16.1-6.4,15.6-8.7
					C48.2,120.2,45.5,121,45.2,121.2z"/>
			</g>
			<g>
				<g>
					<path class="st29" d="M35.9,127.9c-0.2,0-0.3,0-0.4-0.2c-1.5-2.4-2.2-4.6-2.3-6.5c-0.1-2.6,4.4-4.1,4.6-4.1
						c0.2-0.1,0.4,0,0.5,0.3c0.1,0.2,0,0.4-0.2,0.5c-1.1,0.4-4.1,1.7-4.1,3.4c0,1.7,0.8,3.8,2.1,6.1c0.1,0.2,0.1,0.4-0.1,0.5
						C36,127.9,36,127.9,35.9,127.9z"/>
				</g>
			</g>
			<g>
				<path class="st30" d="M37.1,122.3c0,0,3.2-1.5,3.5-2l0.7,1.4c0,0-3.2,1.9-3.5,2L37.1,122.3z"/>
			</g>
		</g>
		<path class="st31" d="M40.1,105.4c-0.3,0.4-0.8,0.5-1.3,0.7c-0.1,0-0.2,0.1-0.3,0c-0.1,0-0.2-0.1-0.3-0.2s0-0.2,0.1-0.3
			c0.1-0.1,0.2-0.2,0.3-0.2c0.5-0.2,1-0.3,1.4-0.7c0,0,0,0,0-0.1c-0.1,0-0.2,0.1-0.4,0.1c-0.2,0.1-0.5,0.2-0.8,0.3
			c-0.1,0-0.3,0.1-0.4,0.1c-0.1,0-0.2,0.1-0.3,0s-0.2-0.3-0.1-0.4c0.1-0.1,0.2-0.2,0.3-0.3c0.2-0.1,0.4-0.2,0.6-0.3
			c0.2-0.1,0.4-0.2,0.7-0.3c0.1,0,0.2-0.1,0.3-0.1l0,0c0,0,0,0-0.1,0c-0.2,0-0.4,0.2-0.7,0.2c-0.1,0-0.3,0.1-0.4,0.1
			c-0.2,0.1-0.3,0.1-0.5,0.2s-0.3,0.1-0.5,0.1c-0.1,0-0.3,0-0.3-0.1c-0.1-0.1,0-0.3,0.1-0.4s0.2-0.2,0.3-0.2
			c0.5-0.3,1.1-0.4,1.6-0.7c0.1,0,0.2-0.1,0.2-0.2c0,0-0.5,0.1-0.5,0.2c-0.2,0.1-0.4,0.2-0.5,0.2c-0.3,0.1-0.7,0.3-1.1,0.3
			c-0.1,0-0.1,0-0.2,0c-0.1-0.1,0-0.2,0-0.2c0.1-0.4,0.4-0.6,0.7-0.8c-0.2,0.1-0.5,0.2-0.7,0.4c-0.1,0.1-0.2,0.2-0.2,0.3
			c0,0.1,0,0.2,0,0.2c0,0.1,0.1,0.2,0.1,0.3c0,0.2,0.1,0.4,0.1,0.6c0,0.4,0,0.8,0,1.2c0.3,0.1,0.6,0.2,0.8,0.5
			c0.2,0.2,0.3,0.6,0.1,0.9c0,0,0.1-0.1,0.2-0.1c0.1,0,0.1-0.1,0.1-0.1c0.1-0.1,0.2-0.2,0.4-0.2c0.3-0.2,0.6-0.3,0.9-0.5
			c0.3-0.2,0.5-0.5,0.5-0.9C40.3,105.2,40.2,105.3,40.1,105.4z"/>
	</g>
</g>
</svg>
